<svg width="536" height="381" viewBox="0 0 536 381" fill="none" xmlns="http://www.w3.org/2000/svg">
<g clip-path="url(#clip0_3_5)">
<path d="M323.971 151.385C323.68 151.29 323.368 151.244 323.054 151.249C322.74 151.254 322.43 151.31 322.144 151.413C321.858 151.517 321.602 151.666 321.391 151.851C321.18 152.036 321.019 152.253 320.918 152.489C320.745 152.954 320.798 153.453 321.069 153.887C321.34 154.321 321.807 154.658 322.378 154.83L325.285 155.765L315.721 156.08C314.514 156.106 313.058 156.75 313.193 157.823C313.231 158.695 312.181 159.904 313.044 160.835C313.044 160.846 322.778 167.748 323.898 167.725C328.65 167.624 334.417 163.31 336.051 159.778L338.621 154.218L323.971 151.385Z" fill="#E98862"/>
<g opacity="0.1">
<path d="M323.971 151.385C323.68 151.29 323.368 151.244 323.054 151.249C322.74 151.254 322.43 151.31 322.144 151.413C321.858 151.517 321.602 151.666 321.391 151.851C321.18 152.036 321.019 152.253 320.918 152.489C320.745 152.954 320.798 153.453 321.069 153.887C321.34 154.321 321.807 154.658 322.378 154.83L325.285 155.765L315.721 156.08C314.514 156.106 313.058 156.75 313.193 157.823C313.231 158.695 312.181 159.904 313.044 160.835C313.044 160.846 322.778 167.748 323.898 167.725C328.65 167.624 334.417 163.31 336.051 159.778L338.621 154.218L323.971 151.385Z" fill="#0C0C0C"/>
</g>
<path d="M499.474 349.733C499.474 349.733 507.725 359.48 498.723 367.585C489.721 375.691 499.422 380.126 499.422 380.126L536 350.892L517.725 336.286L499.474 349.733Z" fill="#367CFF"/>
<path d="M498.052 147.993C498.052 147.993 497.89 144.52 497.924 152.399C497.981 165.484 496.423 200.061 497.518 244.626C498.394 280.249 528.897 342.636 528.897 342.636L500.913 358.689C500.913 358.689 459.341 302.864 452.66 248.843C449.24 221.192 442.244 146.799 442.244 146.799L498.052 147.993Z" fill="#262626"/>
<path d="M411.698 358.774C411.698 358.774 408.909 370.329 395.372 370.973C381.835 371.617 384.77 380.236 384.77 380.236H436.5V359.579L411.698 358.774Z" fill="#367CFF"/>
<path d="M405.123 150.276C405.123 150.276 400.877 250.724 401.318 255.634L405.311 365.387L438.741 365.881L444.132 251.664C444.132 251.664 447.665 220.157 457.19 190.901C462.065 175.882 464.998 160.508 465.944 145.017L405.123 150.276Z" fill="#262626"/>
<path d="M449.225 221.494L446.438 187.421C446.438 187.421 443.574 201.585 443.574 213.794C443.574 219.761 445.113 243.388 445.113 243.388L449.225 221.494Z" fill="#0A0A0A"/>
<path d="M498.422 147.99L498.534 147.995C498.534 147.995 498.453 146.282 498.422 147.99Z" fill="#333333"/>
<path d="M498.283 147.99L498.394 147.995C498.394 147.995 498.314 146.282 498.283 147.99Z" fill="#333333"/>
<path d="M427.179 23.9614C427.179 23.9614 421.239 19.2726 421.174 9.95884C421.122 2.74751 428.553 8.2237 428.553 8.2237C428.553 8.2237 428.58 3.03097 433.174 4.04579C437.767 5.06061 439.465 10.7033 439.465 10.7033" fill="#0C0C0C"/>
<path d="M457.27 7.27351C457.27 7.27351 480.158 11.7758 467.449 35.8456L465.378 35.7315L461.167 35.5" fill="#0C0C0C"/>
<path d="M427.892 60.8616C427.995 60.8509 429.139 75.9142 451.189 74.6024C466.455 73.6947 471.898 60.8403 472.247 60.8403C470.602 60.5626 468.568 60.1413 467.76 59.9969C465.998 59.6722 464.403 58.9296 463.186 57.8678C461.968 56.806 461.188 55.4753 460.946 54.0527C460.5 51.9171 461.256 40.993 461.024 38.8324L437.593 42.9833C437.92 47.5462 440.211 58.1243 432.181 59.9969C430.843 60.3065 429.405 60.5912 427.892 60.8616Z" fill="#E98862"/>
<path opacity="0.52" d="M437.264 55.6737C437.631 54.7348 437.867 53.7669 437.969 52.7872C438.226 50.5515 438.174 48.3003 437.814 46.0736C442.577 45.5635 447.064 44.0034 450.765 41.5705C451.2 42.8459 453.593 48.4182 452.929 49.6286C451.679 51.9216 445.794 55.6737 437.264 55.6737Z" fill="#0C0C0C"/>
<path d="M440.768 51.2799C450.04 51.6234 461.795 48.2223 463.655 38.3723L465.334 29.4843C467.196 19.6342 462.186 10.873 450.5 9.48232C438.815 8.09159 428.573 15.0371 426.711 24.8871L425.968 28.822C425.742 30.1765 425.633 31.5417 425.642 32.9079C425.63 36.5189 425.63 42.0115 428.033 45.9881C430.302 49.7427 434.845 51.0602 440.768 51.2799Z" fill="#E98862"/>
<path d="M441.661 40.3205C438.964 41.0234 436.048 40.9929 433.375 40.2338C433.282 40.2072 433.182 40.2022 433.086 40.2194C432.99 40.2367 432.902 40.2754 432.833 40.3311C432.763 40.3868 432.716 40.457 432.695 40.5335C432.675 40.61 432.682 40.6895 432.717 40.7627C433.316 42.0123 434.882 44.2149 438.379 43.8243C440.638 43.5719 441.796 41.91 442.311 40.8567C442.348 40.7838 442.357 40.7042 442.338 40.6273C442.318 40.5504 442.272 40.4794 442.203 40.4229C442.135 40.3664 442.047 40.3267 441.951 40.3086C441.855 40.2904 441.755 40.2946 441.661 40.3205Z" fill="white"/>
<path d="M432.683 29.1873C433.486 29.1873 434.138 28.6701 434.138 28.0322C434.138 27.3942 433.486 26.8771 432.683 26.8771C431.879 26.8771 431.227 27.3942 431.227 28.0322C431.227 28.6701 431.879 29.1873 432.683 29.1873Z" fill="#0C0C0C"/>
<path d="M446.633 29.5988C447.437 29.5988 448.089 29.0816 448.089 28.4437C448.089 27.8057 447.437 27.2886 446.633 27.2886C445.829 27.2886 445.178 27.8057 445.178 28.4437C445.178 29.0816 445.829 29.5988 446.633 29.5988Z" fill="#0C0C0C"/>
<path d="M462.363 41.2866C465.914 41.7096 469.362 39.0369 469.895 36.2183C470.428 33.3996 467.842 31.5029 464.291 31.0803L462.104 32.7508L459.31 40.9234L462.363 41.2866Z" fill="#E98862"/>
<path d="M459.605 36.3635C459.605 36.3635 460.814 22.2709 455.628 20.8286C452.175 19.8682 442.869 22.9311 435.098 20.8556C431.696 19.9476 428.265 20.2731 427.702 21.5453C427.479 22.0492 426.589 14.3654 433.032 9.30766C438.161 5.28109 452.625 5.55924 458.852 7.739C476.091 13.7756 464.918 31.7732 464.918 31.7732L463.287 36.5001L459.605 36.3635Z" fill="#0C0C0C"/>
<g opacity="0.52">
<path d="M436.494 38.2696H436.471C435.326 38.1358 433.425 37.8098 433.55 37.13C433.653 36.5668 436.725 30.7147 437.075 30.0492C437.105 29.9919 437.163 29.9464 437.235 29.9228C437.307 29.8992 437.388 29.8993 437.461 29.9232C437.533 29.947 437.59 29.9927 437.62 30.0501C437.65 30.1074 437.649 30.1719 437.619 30.2291C436.257 32.8208 434.204 36.8146 434.133 37.1979C434.216 37.3718 435.37 37.6679 436.555 37.8066C436.63 37.816 436.697 37.8478 436.743 37.8954C436.789 37.943 436.81 38.0028 436.802 38.0624C436.794 38.122 436.757 38.1769 436.7 38.2157C436.642 38.2546 436.568 38.2744 436.493 38.2712L436.494 38.2696Z" fill="#0C0C0C"/>
</g>
<path d="M434.93 24.242C433.771 23.8483 432.498 23.7106 431.248 23.8432C430.635 23.9054 430.037 24.0402 429.473 24.2433C428.917 24.4416 428.394 24.695 427.918 24.9975C427.831 25.0512 427.773 25.1294 427.757 25.216C427.741 25.3025 427.767 25.3907 427.83 25.4623C427.893 25.5339 427.989 25.5835 428.097 25.6006C428.205 25.6178 428.317 25.6014 428.411 25.5546L428.44 25.5395C428.873 25.2984 429.344 25.1015 429.839 24.9534C430.328 24.8051 430.841 24.7167 431.363 24.6912C432.389 24.6333 433.416 24.7917 434.341 25.1505L434.379 25.1661C434.531 25.2283 434.708 25.24 434.871 25.1987C435.034 25.1574 435.169 25.0664 435.248 24.9458C435.326 24.8252 435.341 24.6847 435.289 24.5555C435.237 24.4262 435.122 24.3186 434.97 24.2564L434.93 24.242Z" fill="#0C0C0C"/>
<path d="M443.362 25.3346C444.34 25.0807 445.385 25.0364 446.391 25.2061C446.902 25.2891 447.395 25.4328 447.852 25.6324C448.317 25.8336 448.748 26.0802 449.136 26.3666L449.161 26.3842C449.245 26.4429 449.354 26.4733 449.466 26.4691C449.577 26.4649 449.682 26.4263 449.759 26.3616C449.835 26.2969 449.876 26.2111 449.874 26.1225C449.872 26.0339 449.826 25.9495 449.747 25.8872C449.328 25.5353 448.855 25.2269 448.338 24.9693C447.816 24.7066 447.247 24.5077 446.65 24.3791C445.435 24.1104 444.151 24.1073 442.934 24.3701C442.852 24.3882 442.776 24.4189 442.709 24.4604C442.643 24.5019 442.587 24.5535 442.546 24.6121C442.504 24.6706 442.478 24.7351 442.467 24.8019C442.457 24.8686 442.464 24.9363 442.487 25.001C442.51 25.0657 442.548 25.1263 442.601 25.1791C442.653 25.232 442.718 25.2762 442.792 25.3091C442.865 25.3421 442.947 25.3631 443.031 25.3712C443.115 25.3792 443.2 25.374 443.282 25.3559C443.294 25.353 443.307 25.3501 443.319 25.3464L443.362 25.3346Z" fill="#0C0C0C"/>
<path d="M445.362 10.715C446.703 7.72708 445.716 4.71887 443.158 3.99597C440.601 3.27306 437.44 5.10921 436.1 8.09713C434.759 11.085 435.746 14.0932 438.304 14.8162C440.861 15.5391 444.022 13.7029 445.362 10.715Z" fill="#0C0C0C"/>
<path d="M430.951 80.9711L399.544 138.541L399.508 138.607C398.245 140.908 396.191 142.879 393.582 144.295L338.733 173.923L319.848 152.154L374.292 122.058L368.33 127.812L399.738 70.2441L430.951 80.9711Z" fill="#367CFF"/>
<path d="M400.198 94.5197C400.899 101.102 404.309 142.168 404.983 150.276H497.876C498.4 142.963 500.757 110.988 502.747 96.6884C504.646 83.0433 508.373 76.2115 505.641 72.1776C501.177 65.5847 488.979 61.775 480.662 60.8747C475.583 60.3253 467.944 59.9314 467.944 59.9314C467.944 59.9314 467.297 70.3885 451.875 70.9705C430.88 71.762 432.282 59.9224 432.179 59.9314C419.758 61.0088 411.269 62.5812 406.513 64.8333C393.563 70.9636 398.71 80.5711 400.198 94.5197Z" fill="#367CFF"/>
<path d="M399.456 126.835C399.484 126.474 399.653 126.129 399.938 125.846C400.224 125.564 400.613 125.359 401.051 125.26C401.037 125.241 401.028 125.22 401.026 125.198C401.024 125.176 401.029 125.154 401.04 125.134C401.052 125.114 401.069 125.096 401.091 125.082C401.113 125.069 401.138 125.06 401.166 125.056L399.34 124.732C398.798 124.644 398.314 124.404 397.977 124.055C397.641 123.707 397.474 123.273 397.509 122.835C397.557 122.403 397.805 122 398.206 121.706C398.606 121.411 399.131 121.245 399.677 121.24C399.666 121.225 399.671 121.205 399.665 121.188L398.915 121.055C398.404 120.971 397.946 120.75 397.617 120.428C397.289 120.107 397.11 119.705 397.111 119.291C397.116 119.032 397.194 118.777 397.338 118.545C397.483 118.312 397.691 118.108 397.947 117.947C398.203 117.786 398.501 117.673 398.819 117.614C399.138 117.556 399.468 117.555 399.787 117.61L401.518 117.917C401.518 117.91 401.511 117.904 401.513 117.896C401.515 117.888 401.529 117.881 401.533 117.872C401.081 117.701 400.716 117.413 400.497 117.056C400.277 116.699 400.217 116.293 400.325 115.905C400.521 114.887 402.053 114.559 403.172 114.758L413.273 116.402L410.876 115.002C410.403 114.735 410.074 114.336 409.954 113.884C409.835 113.433 409.935 112.963 410.233 112.567C410.395 112.368 410.607 112.196 410.855 112.064C411.104 111.932 411.384 111.841 411.678 111.798C411.972 111.755 412.275 111.76 412.566 111.814C412.858 111.867 413.132 111.967 413.373 112.108L426.46 119.755C427.997 120.657 429.034 121.998 429.352 123.494C429.67 124.991 429.245 126.527 428.166 127.78C426.923 129.229 425.161 130.349 423.107 130.995C421.053 131.641 418.802 131.783 416.646 131.402L401.259 128.673C400.742 128.571 400.283 128.335 399.956 128.002C399.629 127.669 399.453 127.258 399.456 126.835Z" fill="#E98862"/>
<g opacity="0.25">
<path d="M411.515 119.542C411.504 119.583 411.473 119.619 411.428 119.642C411.383 119.665 411.329 119.673 411.277 119.664L401.672 118.089C401.619 118.08 401.573 118.055 401.544 118.019C401.514 117.983 401.504 117.94 401.514 117.898C401.519 117.877 401.53 117.857 401.544 117.839C401.559 117.822 401.578 117.807 401.601 117.795C401.623 117.783 401.648 117.775 401.674 117.771C401.701 117.767 401.728 117.767 401.754 117.771L411.359 119.346C411.411 119.355 411.458 119.38 411.487 119.416C411.517 119.452 411.527 119.495 411.517 119.537L411.515 119.542Z" fill="#0C0C0C"/>
</g>
<g opacity="0.25">
<path d="M410.764 122.947C410.752 122.987 410.72 123.023 410.676 123.046C410.631 123.069 410.577 123.077 410.525 123.069L399.806 121.31C399.753 121.301 399.707 121.276 399.677 121.24C399.648 121.205 399.637 121.161 399.648 121.119C399.66 121.078 399.691 121.042 399.736 121.018C399.78 120.995 399.835 120.986 399.887 120.993L410.607 122.752C410.659 122.761 410.706 122.786 410.735 122.822C410.765 122.858 410.775 122.901 410.765 122.943L410.764 122.947Z" fill="#0C0C0C"/>
</g>
<g opacity="0.25">
<path d="M409.975 126.638C409.964 126.679 409.932 126.715 409.888 126.738C409.843 126.761 409.789 126.769 409.737 126.761L401.186 125.359C401.139 125.347 401.099 125.32 401.075 125.286C401.05 125.251 401.042 125.211 401.052 125.172C401.062 125.133 401.089 125.099 401.129 125.075C401.169 125.051 401.218 125.039 401.268 125.042L409.819 126.443C409.871 126.452 409.917 126.477 409.947 126.513C409.976 126.549 409.987 126.593 409.977 126.634L409.975 126.638Z" fill="#0C0C0C"/>
</g>
<path d="M417.598 136.271L501.083 148.329C503.692 148.555 506.331 148.296 508.791 147.572C511.251 146.848 513.465 145.678 515.256 144.156C517.056 142.628 518.389 140.791 519.15 138.788C519.911 136.785 520.08 134.669 519.644 132.606L507.956 77.0824C507.592 75.3337 506.795 73.6595 505.613 72.1556C504.432 70.6518 502.887 69.3479 501.069 68.3189C499.251 67.2899 497.194 66.5559 495.018 66.1591C492.841 65.7623 490.587 65.7106 488.386 66.0067C486.184 66.3029 484.077 66.9412 482.187 67.885C480.297 68.8288 478.66 70.0595 477.37 71.5066C476.081 72.9536 475.164 74.5885 474.672 76.3175C474.181 78.0464 474.124 79.8354 474.506 81.5818L482.475 119.803L421.268 113.658L417.598 136.271Z" fill="#367CFF"/>
<path d="M501.084 148.575C501.124 148.578 501.165 148.575 501.204 148.565C501.243 148.555 501.279 148.539 501.31 148.519C501.342 148.498 501.368 148.472 501.386 148.444C501.405 148.415 501.417 148.384 501.42 148.352C501.424 148.319 501.419 148.287 501.407 148.256C501.395 148.225 501.375 148.196 501.349 148.172C501.323 148.147 501.291 148.126 501.255 148.111C501.219 148.096 501.179 148.087 501.138 148.084L417.942 136.069L421.535 113.933L482.436 120.046C482.484 120.051 482.533 120.047 482.578 120.034C482.623 120.021 482.664 120 482.698 119.972C482.731 119.945 482.756 119.911 482.77 119.874C482.784 119.837 482.788 119.799 482.779 119.761L477.713 95.3328C477.708 95.3007 477.694 95.2697 477.673 95.2419C477.652 95.2141 477.624 95.1899 477.591 95.1708C477.557 95.1517 477.52 95.1381 477.48 95.1308C477.44 95.1235 477.399 95.1227 477.358 95.1283C477.318 95.1336 477.28 95.1452 477.245 95.1623C477.21 95.1795 477.18 95.2019 477.157 95.2283C477.133 95.2547 477.116 95.2845 477.107 95.3161C477.098 95.3476 477.097 95.3803 477.104 95.4122L482.103 119.513L421.307 113.413C421.226 113.405 421.144 113.423 421.079 113.463C421.015 113.503 420.973 113.561 420.962 113.626L417.294 136.239C417.283 136.301 417.303 136.365 417.35 136.416C417.397 136.467 417.467 136.502 417.545 136.514L501.031 148.572C501.048 148.574 501.066 148.575 501.084 148.575Z" fill="#0C0C0C"/>
<path d="M487.797 120.734L487.894 120.247L482.524 119.557L482.426 120.045L487.797 120.734Z" fill="#0C0C0C"/>
<path d="M429.373 380.68L428.708 380.782L428.363 380.835L428.358 380.782L413.092 260.418L412.989 259.6L412.541 256.062L413.556 255.911L414.025 259.592L414.077 260.001L414.128 260.406L429.373 380.68Z" fill="#494949"/>
<path d="M370.471 380.68L369.801 380.782L369.456 380.835L369.451 380.782L354.191 260.418L354.139 260.009L354.088 259.6L353.64 256.062L354.65 255.911L355.119 259.6L355.17 260.009L355.222 260.418L370.471 380.68Z" fill="#494949"/>
<path d="M255.07 256.062L254.622 259.6L254.57 260.009L254.519 260.418L239.254 380.782L239.248 380.835L238.903 380.782L238.238 380.68L253.488 260.418L253.54 260.009L253.591 259.6L254.06 255.911L255.07 256.062Z" fill="#494949"/>
<path d="M313.977 256.062L313.528 259.6L313.425 260.418L298.16 380.782L298.155 380.835L297.81 380.782L297.145 380.68L312.389 260.418L312.441 260.009L312.493 259.6L312.962 255.911L313.977 256.062Z" fill="#494949"/>
<path d="M319.131 200.995L309.89 255.93L310.911 256.038L320.153 201.103L319.131 200.995Z" fill="#494949"/>
<path d="M425.206 200.994L415.964 255.93L416.986 256.038L426.227 201.103L425.206 200.994Z" fill="#494949"/>
<path d="M309.983 260.009H413.737C416.536 260.009 418.805 258.208 418.805 255.987V255.986C418.805 253.764 416.536 251.963 413.737 251.963H309.983C307.183 251.963 304.914 253.764 304.914 255.986V255.987C304.914 258.208 307.183 260.009 309.983 260.009Z" fill="#292A2E"/>
<path opacity="0.8" d="M309.983 260.009H413.737C416.536 260.009 418.805 258.208 418.805 255.987V255.986C418.805 253.764 416.536 251.963 413.737 251.963H309.983C307.183 251.963 304.914 253.764 304.914 255.986V255.987C304.914 258.208 307.183 260.009 309.983 260.009Z" fill="white"/>
<path d="M304.399 255.986C304.4 254.811 304.989 253.685 306.036 252.854C307.083 252.023 308.502 251.556 309.983 251.555H413.738C415.219 251.555 416.639 252.022 417.686 252.853C418.733 253.684 419.322 254.811 419.322 255.987C419.322 257.162 418.733 258.289 417.686 259.12C416.639 259.952 415.219 260.418 413.738 260.418H309.983C308.502 260.417 307.083 259.95 306.036 259.119C304.989 258.288 304.4 257.161 304.399 255.986ZM309.983 252.373C308.775 252.373 307.617 252.753 306.763 253.431C305.909 254.109 305.429 255.028 305.429 255.987C305.429 256.945 305.909 257.864 306.763 258.542C307.617 259.22 308.775 259.6 309.983 259.6H413.738C414.945 259.6 416.103 259.22 416.957 258.542C417.811 257.864 418.291 256.945 418.291 255.987C418.291 255.028 417.811 254.109 416.957 253.431C416.103 252.753 414.945 252.373 413.738 252.373H309.983Z" fill="#292A2E"/>
<path d="M253.037 260.009H356.791C359.59 260.009 361.86 258.208 361.86 255.987V255.986C361.86 253.764 359.59 251.963 356.791 251.963H253.037C250.238 251.963 247.968 253.764 247.968 255.986V255.987C247.968 258.208 250.238 260.009 253.037 260.009Z" fill="white"/>
<path d="M247.453 255.986C247.454 254.811 248.043 253.685 249.09 252.854C250.137 252.023 251.557 251.556 253.037 251.555H356.789C358.27 251.555 359.691 252.022 360.738 252.853C361.785 253.684 362.373 254.811 362.373 255.987C362.373 257.162 361.785 258.289 360.738 259.12C359.691 259.952 358.27 260.418 356.789 260.418H253.037C251.556 260.417 250.137 259.95 249.09 259.119C248.043 258.288 247.454 257.161 247.453 255.986ZM253.037 252.373C251.829 252.373 250.671 252.753 249.817 253.431C248.964 254.109 248.484 255.028 248.484 255.987C248.484 256.945 248.964 257.864 249.817 258.542C250.671 259.22 251.829 259.6 253.037 259.6H356.789C357.997 259.6 359.155 259.22 360.009 258.542C360.863 257.864 361.343 256.945 361.343 255.987C361.343 255.028 360.863 254.109 360.009 253.431C359.155 252.753 357.997 252.373 356.789 252.373H253.037Z" fill="#292A2E"/>
<path d="M324.82 201.051H425.444C427.089 201.051 428.678 200.576 429.914 199.714C431.15 198.852 431.949 197.663 432.161 196.368L438.817 155.8C438.941 155.042 438.861 154.271 438.58 153.54C438.299 152.808 437.825 152.132 437.19 151.558C436.554 150.983 435.771 150.523 434.893 150.207C434.015 149.892 433.063 149.729 432.099 149.729H331.475C329.83 149.729 328.241 150.204 327.005 151.066C325.769 151.928 324.97 153.117 324.758 154.412L318.102 194.98C317.977 195.738 318.058 196.509 318.339 197.24C318.62 197.972 319.094 198.647 319.729 199.222C320.365 199.797 321.148 200.257 322.026 200.572C322.904 200.888 323.856 201.051 324.82 201.051Z" fill="#292A2E"/>
<path opacity="0.8" d="M324.82 201.051H425.444C427.089 201.051 428.678 200.576 429.914 199.714C431.15 198.852 431.949 197.663 432.161 196.368L438.817 155.8C438.941 155.042 438.861 154.271 438.58 153.54C438.299 152.808 437.825 152.132 437.19 151.558C436.554 150.983 435.771 150.523 434.893 150.207C434.015 149.892 433.063 149.729 432.099 149.729H331.475C329.83 149.729 328.241 150.204 327.005 151.066C325.769 151.928 324.97 153.117 324.758 154.412L318.102 194.98C317.977 195.738 318.058 196.509 318.339 197.24C318.62 197.972 319.094 198.647 319.729 199.222C320.365 199.797 321.148 200.257 322.026 200.572C322.904 200.888 323.856 201.051 324.82 201.051Z" fill="white"/>
<path d="M319.342 199.492C318.658 198.874 318.148 198.147 317.846 197.36C317.544 196.573 317.456 195.743 317.59 194.927L324.246 154.359C324.478 152.967 325.339 151.689 326.669 150.762C327.998 149.836 329.706 149.323 331.475 149.32H432.1C433.137 149.32 434.161 149.496 435.106 149.835C436.05 150.174 436.893 150.67 437.577 151.288C438.261 151.906 438.771 152.633 439.073 153.42C439.375 154.208 439.462 155.037 439.328 155.853L432.672 196.42C432.44 197.812 431.579 199.09 430.25 200.016C428.921 200.943 427.213 201.455 425.444 201.459H324.82C323.783 201.459 322.758 201.283 321.814 200.944C320.869 200.605 320.027 200.11 319.342 199.492ZM331.476 150.138C329.957 150.141 328.49 150.581 327.349 151.376C326.207 152.172 325.468 153.269 325.269 154.465L318.613 195.033C318.498 195.733 318.573 196.445 318.832 197.121C319.091 197.797 319.529 198.421 320.117 198.952C320.704 199.483 321.428 199.908 322.239 200.2C323.05 200.491 323.929 200.642 324.82 200.642H425.444C426.963 200.639 428.429 200.199 429.57 199.403C430.712 198.608 431.451 197.511 431.65 196.316L438.306 155.747C438.421 155.047 438.346 154.335 438.087 153.659C437.828 152.983 437.39 152.359 436.802 151.828C436.215 151.297 435.492 150.872 434.681 150.58C433.87 150.289 432.99 150.138 432.1 150.138H331.476Z" fill="#292A2E"/>
<path d="M319.129 201.051H419.754C421.399 201.051 422.988 200.576 424.224 199.714C425.46 198.852 426.259 197.663 426.471 196.368L433.127 155.8C433.252 155.042 433.171 154.271 432.89 153.54C432.609 152.808 432.135 152.133 431.499 151.558C430.864 150.983 430.081 150.523 429.203 150.208C428.325 149.892 427.373 149.729 426.409 149.729H325.785C324.14 149.729 322.551 150.204 321.315 151.066C320.079 151.928 319.28 153.117 319.068 154.412L312.412 194.98C312.287 195.738 312.368 196.509 312.649 197.24C312.929 197.972 313.403 198.647 314.039 199.222C314.675 199.797 315.458 200.257 316.336 200.572C317.214 200.888 318.166 201.051 319.129 201.051Z" fill="white"/>
<path d="M313.653 199.492C312.969 198.874 312.459 198.147 312.156 197.36C311.854 196.573 311.767 195.743 311.901 194.927L318.557 154.359C318.789 152.967 319.65 151.689 320.979 150.762C322.308 149.836 324.016 149.323 325.785 149.32H426.41C427.446 149.32 428.471 149.496 429.416 149.835C430.36 150.174 431.203 150.67 431.887 151.288C432.571 151.906 433.081 152.633 433.383 153.42C433.685 154.208 433.772 155.037 433.638 155.853L426.983 196.42C426.75 197.812 425.89 199.09 424.56 200.016C423.231 200.943 421.523 201.455 419.754 201.459H319.129C318.093 201.459 317.068 201.283 316.124 200.944C315.18 200.605 314.337 200.11 313.653 199.492ZM325.786 150.138C324.267 150.141 322.801 150.581 321.66 151.376C320.518 152.172 319.779 153.269 319.58 154.465L312.924 195.033C312.809 195.733 312.884 196.445 313.143 197.121C313.402 197.797 313.84 198.421 314.428 198.952C315.015 199.483 315.738 199.908 316.549 200.2C317.36 200.491 318.24 200.642 319.13 200.642H419.754C421.273 200.639 422.739 200.199 423.88 199.404C425.022 198.608 425.761 197.511 425.96 196.316L432.616 155.747C432.731 155.047 432.656 154.335 432.397 153.659C432.138 152.983 431.7 152.359 431.112 151.828C430.525 151.297 429.802 150.872 428.991 150.58C428.18 150.289 427.3 150.138 426.41 150.138H325.786Z" fill="#292A2E"/>
<path d="M329.291 180.674C329.263 180.674 329.236 180.672 329.209 180.669C329.074 180.652 328.953 180.593 328.873 180.505C328.793 180.417 328.76 180.308 328.782 180.2C328.988 179.168 333.946 154.843 339.057 149.482C339.098 149.439 339.149 149.403 339.207 149.376C339.265 149.348 339.33 149.331 339.397 149.323C339.464 149.316 339.532 149.319 339.598 149.333C339.663 149.346 339.725 149.37 339.779 149.402C339.833 149.435 339.878 149.475 339.912 149.522C339.947 149.568 339.969 149.619 339.978 149.672C339.988 149.726 339.983 149.78 339.966 149.832C339.949 149.884 339.92 149.933 339.879 149.975C334.922 155.174 329.85 180.078 329.8 180.329C329.78 180.425 329.719 180.513 329.626 180.576C329.532 180.639 329.414 180.674 329.291 180.674Z" fill="#0CBC8B"/>
<path d="M402.019 170.834C401.888 170.834 401.762 170.795 401.667 170.725C401.571 170.654 401.513 170.558 401.503 170.454C400.53 159.748 393.453 150.444 393.382 150.351C393.311 150.259 393.289 150.147 393.321 150.042C393.353 149.936 393.437 149.845 393.553 149.789C393.67 149.732 393.81 149.715 393.943 149.74C394.076 149.766 394.191 149.832 394.262 149.925C394.334 150.019 401.539 159.486 402.531 170.395C402.536 170.449 402.527 170.503 402.506 170.554C402.485 170.605 402.451 170.652 402.407 170.693C402.363 170.733 402.309 170.767 402.248 170.791C402.188 170.815 402.122 170.829 402.054 170.833L402.019 170.834Z" fill="#0CBC8B"/>
<path d="M422.593 191.938L310.11 206.11L304.232 178.904L416.715 164.731L422.593 191.938Z" fill="#0CBC8B"/>
<path d="M329.504 184.435L331.218 184.219L328.455 195.717L326.88 195.916L319.793 185.659L321.48 185.446L326.037 192.087C326.54 192.814 326.986 193.565 327.371 194.336C327.437 193.493 327.571 192.653 327.771 191.822L329.504 184.435Z" fill="white"/>
<path d="M343.892 193.771L341.494 190.527L336.002 191.219L335.006 194.891L333.394 195.095L336.627 183.492L337.967 183.323L345.543 193.564L343.892 193.771ZM340.769 189.451L338.502 186.282C338.21 185.881 337.893 185.385 337.55 184.793C337.498 185.344 337.406 185.893 337.273 186.437L336.336 190.01L340.769 189.451Z" fill="white"/>
<path d="M351.313 182.685C350.639 182.744 349.99 182.922 349.414 183.207C348.838 183.491 348.35 183.874 347.985 184.328C347.272 185.234 347.055 186.379 347.331 187.764C347.616 189.188 348.257 190.235 349.252 190.905C349.782 191.243 350.401 191.483 351.064 191.606C351.726 191.73 352.415 191.733 353.08 191.616C354.185 191.458 355.258 191.181 356.269 190.795L356.491 191.903C355.421 192.351 354.26 192.645 353.061 192.77C351.042 193.024 349.387 192.734 348.096 191.901C346.805 191.067 345.981 189.755 345.622 187.964C345.39 186.95 345.46 185.907 345.826 184.918C346.16 184.038 346.821 183.258 347.723 182.681C348.704 182.074 349.872 181.684 351.105 181.554C352.4 181.366 353.732 181.418 354.999 181.704L354.541 182.875C353.496 182.622 352.394 182.557 351.313 182.685Z" fill="white"/>
<path d="M368.15 190.715L365.752 187.47L360.259 188.162L359.264 191.834L357.652 192.039L360.885 180.435L362.225 180.266L369.801 190.508L368.15 190.715ZM365.027 186.395L362.759 183.226C362.468 182.825 362.15 182.329 361.808 181.736C361.756 182.288 361.664 182.837 361.531 183.38L360.593 186.953L365.027 186.395Z" fill="white"/>
<path d="M382.387 188.921L380.569 189.15L371.254 180.966L371.179 180.975C371.493 182.034 371.739 183.009 371.918 183.902L373.155 190.084L371.684 190.27L369.508 179.393L371.308 179.167L380.596 187.316L380.671 187.307C380.632 187.174 380.518 186.748 380.329 186.026C380.14 185.305 380.02 184.787 379.968 184.472L378.719 178.23L380.21 178.043L382.387 188.921Z" fill="white"/>
<path d="M390.042 177.805C389.368 177.864 388.719 178.042 388.143 178.327C387.567 178.611 387.079 178.995 386.715 179.449C386.002 180.354 385.784 181.5 386.061 182.885C386.345 184.308 386.985 185.355 387.981 186.025C388.511 186.364 389.13 186.604 389.793 186.727C390.455 186.85 391.144 186.853 391.809 186.736C392.914 186.578 393.987 186.302 394.998 185.915L395.22 187.024C394.15 187.472 392.989 187.765 391.79 187.89C389.772 188.145 388.117 187.855 386.826 187.021C385.534 186.187 384.71 184.874 384.352 183.085C384.12 182.071 384.189 181.028 384.555 180.039C384.889 179.159 385.55 178.379 386.452 177.801C387.433 177.194 388.601 176.805 389.834 176.674C391.13 176.487 392.462 176.538 393.728 176.824L393.27 177.995C392.225 177.742 391.122 177.677 390.042 177.805Z" fill="white"/>
<path d="M400.664 181.043L403.232 175.144L404.957 174.927L401.714 182.161L402.558 186.379L400.946 186.584L400.114 182.425L394.205 176.281L395.948 176.062L400.664 181.043Z" fill="white"/>
<path d="M143.133 253.615H101.735V263.175H143.133V253.615Z" fill="#F4F4F4"/>
<path opacity="0.05" d="M112.719 253.615H107.295V263.175H112.719V253.615Z" fill="#292A2E"/>
<path d="M137.843 255.693H115.288V261.358H137.843V255.693Z" fill="white"/>
<path d="M176.153 254.863L137.687 241.528L132.866 250.289L171.332 263.623L176.153 254.863Z" fill="#F4F4F4"/>
<path opacity="0.05" d="M176.153 254.863L137.687 241.528L132.866 250.289L171.332 263.623L176.153 254.863Z" fill="#292A2E"/>
<path d="M170.987 253.072L165.947 251.325L161.126 260.085L166.166 261.833L170.987 253.072Z" fill="white"/>
<path d="M162.511 252.401L141.555 245.136L138.698 250.328L159.654 257.592L162.511 252.401Z" fill="white"/>
<path opacity="0.05" d="M176.225 374.722H165.822V380.236H176.225V374.722Z" fill="#292A2E"/>
<path opacity="0.05" d="M69.8633 374.722H59.4601V380.236H69.8633V374.722Z" fill="#292A2E"/>
<path d="M185.761 263.623H49.9237V374.535H185.761V263.623Z" fill="#F4F4F4"/>
<path opacity="0.03" d="M185.761 263.623H49.9237V374.535H185.761V263.623Z" fill="#292A2E"/>
<path d="M210.934 263.623H75.0964V374.535H210.934V263.623Z" fill="#F4F4F4"/>
<path opacity="0.05" d="M201.398 374.722H190.994V380.236H201.398V374.722Z" fill="#292A2E"/>
<path opacity="0.05" d="M95.036 374.722H84.6328V380.236H95.036V374.722Z" fill="#292A2E"/>
<path opacity="0.7" d="M205.836 268.818H80.1959V290.127H205.836V268.818Z" fill="white"/>
<path opacity="0.7" d="M205.836 295.342H80.1959V316.651H205.836V295.342Z" fill="white"/>
<path opacity="0.7" d="M205.836 321.865H80.1959V343.174H205.836V321.865Z" fill="white"/>
<path opacity="0.05" d="M143.016 282.454C145.09 282.454 146.772 281.119 146.772 279.472C146.772 277.826 145.09 276.491 143.016 276.491C140.941 276.491 139.259 277.826 139.259 279.472C139.259 281.119 140.941 282.454 143.016 282.454Z" fill="#292A2E"/>
<path opacity="0.05" d="M143.016 308.978C145.09 308.978 146.772 307.643 146.772 305.996C146.772 304.35 145.09 303.015 143.016 303.015C140.941 303.015 139.259 304.35 139.259 305.996C139.259 307.643 140.941 308.978 143.016 308.978Z" fill="#292A2E"/>
<path opacity="0.05" d="M143.016 335.501C145.09 335.501 146.772 334.167 146.772 332.52C146.772 330.873 145.09 329.539 143.016 329.539C140.941 329.539 139.259 330.873 139.259 332.52C139.259 334.167 140.941 335.501 143.016 335.501Z" fill="#292A2E"/>
<path opacity="0.7" d="M205.836 348.987H80.1959V370.295H205.836V348.987Z" fill="white"/>
<path opacity="0.05" d="M143.016 362.623C145.09 362.623 146.772 361.288 146.772 359.641C146.772 357.995 145.09 356.66 143.016 356.66C140.941 356.66 139.259 357.995 139.259 359.641C139.259 361.288 140.941 362.623 143.016 362.623Z" fill="#292A2E"/>
<path d="M130.294 216.332L129.923 219.232L129.872 219.642L129.82 220.051L109.365 380.782H108.329L128.784 220.051L128.836 219.642L128.887 219.232L129.269 216.251L130.294 216.332Z" fill="#494949"/>
<path d="M502.431 380.782H501.396L480.946 220.051L480.894 219.642L480.843 219.232L480.472 216.332L481.497 216.251L481.879 219.232L481.93 219.642L481.982 220.051L502.431 380.782Z" fill="#494949"/>
<path d="M412.608 380.782H411.572L396.255 260.419L396.204 260.009L396.152 259.6L395.23 252.373L395.178 251.964L395.127 251.555L391.117 220.051L391.066 219.642L391.014 219.232L390.643 216.332L391.669 216.251L392.05 219.232L392.153 220.051L396.163 251.555L396.214 251.964L396.266 252.373L397.188 259.6L397.24 260.009L397.291 260.419L412.608 380.782Z" fill="#494949"/>
<path d="M40.4657 216.332L40.0946 219.232L39.9915 220.051L19.5366 380.782H18.5007L38.9557 220.051L39.0072 219.642L39.0587 219.232L39.4401 216.251L40.4657 216.332Z" fill="#494949"/>
<path d="M19.8478 219.642L499.657 219.642C501.99 219.642 503.88 218.141 503.88 216.29C503.88 214.44 501.99 212.939 499.657 212.939L19.8478 212.939C17.5155 212.939 15.6249 214.44 15.6249 216.29C15.6249 218.141 17.5155 219.642 19.8478 219.642Z" fill="#292A2E"/>
<path opacity="0.8" d="M19.8478 219.642L499.657 219.642C501.99 219.642 503.88 218.141 503.88 216.29C503.88 214.44 501.99 212.939 499.657 212.939L19.8478 212.939C17.5155 212.939 15.6249 214.44 15.6249 216.29C15.6249 218.141 17.5155 219.642 19.8478 219.642Z" fill="white"/>
<path d="M15.1091 216.29C15.1099 215.293 15.6093 214.337 16.4978 213.632C17.3862 212.927 18.5909 212.53 19.8474 212.53H499.655C500.282 212.524 500.903 212.618 501.484 212.804C502.064 212.991 502.592 213.267 503.038 213.617C503.483 213.967 503.836 214.383 504.078 214.842C504.319 215.301 504.443 215.793 504.443 216.29C504.443 216.787 504.319 217.279 504.078 217.738C503.836 218.197 503.483 218.613 503.038 218.963C502.592 219.313 502.064 219.589 501.484 219.776C500.903 219.962 500.282 220.056 499.655 220.051H19.8474C18.591 220.05 17.3864 219.654 16.498 218.948C15.6095 218.243 15.11 217.287 15.1091 216.29ZM19.8474 213.348C19.3568 213.343 18.87 213.416 18.4152 213.562C17.9603 213.707 17.5464 213.923 17.1975 214.197C16.8486 214.471 16.5716 214.797 16.3825 215.156C16.1934 215.515 16.0961 215.901 16.0961 216.29C16.0961 216.679 16.1934 217.065 16.3825 217.424C16.5716 217.783 16.8486 218.109 17.1975 218.383C17.5464 218.657 17.9603 218.873 18.4152 219.019C18.87 219.164 19.3568 219.237 19.8474 219.232H499.655C500.146 219.237 500.633 219.164 501.087 219.019C501.542 218.873 501.956 218.657 502.305 218.383C502.654 218.109 502.931 217.783 503.12 217.424C503.309 217.065 503.406 216.679 503.406 216.29C503.406 215.901 503.309 215.515 503.12 215.156C502.931 214.797 502.654 214.471 502.305 214.197C501.956 213.923 501.542 213.707 501.087 213.562C500.633 213.416 500.146 213.343 499.655 213.348H19.8474Z" fill="#292A2E"/>
<path d="M19.8479 219.642L406.396 219.642C408.728 219.642 410.619 218.141 410.619 216.29C410.619 214.44 408.728 212.939 406.396 212.939L19.8479 212.939C17.5156 212.939 15.6249 214.44 15.6249 216.29C15.6249 218.141 17.5156 219.642 19.8479 219.642Z" fill="white"/>
<path d="M15.1091 216.29C15.1099 215.293 15.6093 214.337 16.4978 213.632C17.3862 212.927 18.5909 212.53 19.8474 212.53H406.396C407.644 212.54 408.836 212.941 409.714 213.645C410.592 214.349 411.085 215.299 411.085 216.29C411.085 217.281 410.592 218.231 409.714 218.935C408.836 219.639 407.644 220.04 406.396 220.051H19.8474C18.591 220.05 17.3864 219.654 16.498 218.948C15.6095 218.243 15.11 217.287 15.1091 216.29ZM19.8474 213.348C19.3568 213.343 18.87 213.416 18.4152 213.562C17.9603 213.707 17.5464 213.923 17.1975 214.197C16.8486 214.471 16.5716 214.797 16.3825 215.156C16.1934 215.515 16.0961 215.901 16.0961 216.29C16.0961 216.679 16.1934 217.065 16.3825 217.424C16.5716 217.783 16.8486 218.109 17.1975 218.383C17.5464 218.657 17.9603 218.873 18.4152 219.019C18.87 219.164 19.3568 219.237 19.8474 219.232H406.396C407.371 219.223 408.303 218.909 408.989 218.358C409.675 217.808 410.06 217.064 410.06 216.29C410.06 215.516 409.675 214.772 408.989 214.222C408.303 213.671 407.371 213.357 406.396 213.348H19.8474Z" fill="#292A2E"/>
<path d="M309.184 208.935H260.609C259.399 208.935 258.417 209.714 258.417 210.675V210.719C258.417 211.68 259.399 212.459 260.609 212.459H309.184C310.395 212.459 311.376 211.68 311.376 210.719V210.675C311.376 209.714 310.395 208.935 309.184 208.935Z" fill="white"/>
<path d="M309.184 208.935H260.609C259.399 208.935 258.417 209.714 258.417 210.675V210.719C258.417 211.68 259.399 212.459 260.609 212.459H309.184C310.395 212.459 311.376 211.68 311.376 210.719V210.675C311.376 209.714 310.395 208.935 309.184 208.935Z" fill="white"/>
<path d="M309.185 212.868H260.609C259.892 212.867 259.204 212.641 258.696 212.238C258.189 211.835 257.903 211.289 257.903 210.72V210.675C257.903 210.105 258.189 209.559 258.696 209.157C259.204 208.754 259.892 208.527 260.609 208.527H309.185C309.902 208.527 310.59 208.754 311.098 209.157C311.605 209.559 311.891 210.105 311.892 210.675V210.72C311.891 211.289 311.605 211.835 311.098 212.238C310.591 212.641 309.903 212.867 309.185 212.868ZM260.609 209.346C260.165 209.346 259.739 209.486 259.425 209.736C259.111 209.985 258.934 210.323 258.933 210.676V210.72C258.934 211.073 259.11 211.411 259.425 211.661C259.739 211.91 260.165 212.051 260.609 212.051H309.185C309.629 212.051 310.055 211.91 310.37 211.661C310.684 211.411 310.86 211.073 310.861 210.72V210.676C310.86 210.323 310.684 209.985 310.369 209.736C310.055 209.486 309.629 209.346 309.185 209.346H260.609Z" fill="#292A2E"/>
<path d="M275.139 207.479L257.328 164.024C257.014 163.261 256.405 162.595 255.586 162.123C254.768 161.652 253.782 161.397 252.77 161.397H180.206C179.45 161.397 178.704 161.54 178.03 161.812C177.357 162.085 176.774 162.48 176.329 162.966C175.885 163.452 175.591 164.014 175.473 164.607C175.355 165.2 175.415 165.806 175.649 166.377L193.46 209.834C193.774 210.597 194.383 211.263 195.202 211.734C196.02 212.206 197.006 212.46 198.018 212.46H270.582C271.338 212.46 272.084 212.318 272.758 212.046C273.432 211.773 274.016 211.377 274.46 210.891C274.905 210.406 275.198 209.843 275.316 209.25C275.434 208.657 275.373 208.05 275.139 207.479Z" fill="white"/>
<path d="M270.581 212.868H198.017C196.896 212.87 195.804 212.589 194.897 212.066C193.989 211.543 193.315 210.805 192.97 209.959L175.157 166.503C174.898 165.871 174.831 165.199 174.962 164.542C175.093 163.885 175.417 163.262 175.91 162.724C176.402 162.186 177.048 161.749 177.794 161.447C178.541 161.145 179.366 160.987 180.204 160.987H252.768C253.889 160.986 254.982 161.266 255.889 161.789C256.796 162.312 257.471 163.05 257.816 163.897L275.627 207.352C275.886 207.984 275.953 208.656 275.822 209.313C275.691 209.97 275.366 210.593 274.874 211.131C274.382 211.669 273.736 212.107 272.989 212.409C272.243 212.711 271.417 212.868 270.579 212.868H270.581ZM180.204 161.805C179.529 161.805 178.864 161.932 178.262 162.176C177.661 162.419 177.141 162.772 176.744 163.205C176.348 163.639 176.086 164.141 175.98 164.67C175.875 165.199 175.929 165.74 176.137 166.25L193.949 209.706C194.227 210.388 194.77 210.982 195.501 211.404C196.232 211.825 197.112 212.052 198.016 212.05H270.58C271.255 212.05 271.92 211.923 272.522 211.68C273.123 211.437 273.643 211.084 274.04 210.65C274.437 210.217 274.698 209.715 274.804 209.186C274.909 208.657 274.856 208.115 274.647 207.606L256.836 164.15C256.558 163.468 256.014 162.873 255.283 162.452C254.552 162.03 253.672 161.804 252.769 161.805H180.204Z" fill="#292A2E"/>
<path d="M225.393 195.088C229.596 195.088 233.004 192.384 233.004 189.047C233.004 185.711 229.596 183.007 225.393 183.007C221.189 183.007 217.782 185.711 217.782 189.047C217.782 192.384 221.189 195.088 225.393 195.088Z" fill="white"/>
<path d="M225.393 195.497C223.785 195.497 222.214 195.119 220.878 194.41C219.542 193.702 218.5 192.694 217.885 191.516C217.27 190.337 217.109 189.04 217.423 187.789C217.736 186.538 218.51 185.389 219.647 184.487C220.783 183.585 222.231 182.971 223.807 182.722C225.384 182.473 227.018 182.601 228.503 183.089C229.987 183.577 231.257 184.404 232.15 185.464C233.042 186.525 233.519 187.772 233.519 189.048C233.517 190.757 232.66 192.397 231.136 193.606C229.613 194.815 227.547 195.495 225.393 195.497ZM225.393 183.416C223.989 183.416 222.617 183.746 221.451 184.365C220.284 184.984 219.374 185.863 218.837 186.892C218.3 187.921 218.16 189.054 218.433 190.146C218.707 191.239 219.383 192.242 220.375 193.03C221.368 193.817 222.632 194.354 224.008 194.571C225.385 194.788 226.812 194.677 228.108 194.25C229.405 193.824 230.513 193.102 231.292 192.176C232.072 191.25 232.488 190.161 232.488 189.048C232.486 187.554 231.738 186.123 230.408 185.067C229.077 184.011 227.274 183.418 225.393 183.416Z" fill="#292A2E"/>
<path d="M238.903 380.782H239.254L239.248 380.835L238.903 380.782Z" fill="white"/>
<path d="M297.81 380.782H298.16L298.155 380.835L297.81 380.782Z" fill="white"/>
<path d="M369.451 380.782H369.801L369.456 380.835L369.451 380.782Z" fill="white"/>
<path d="M428.708 380.782L428.363 380.835L428.358 380.782H428.708Z" fill="white"/>
<path d="M183.847 45.0903C183.856 44.8539 183.924 44.6214 184.05 44.4068C184.175 44.1923 184.354 44.0003 184.576 43.8425C184.798 43.6846 185.058 43.5644 185.34 43.4889C185.622 43.4135 185.921 43.3846 186.218 43.4038C186.791 43.4569 187.317 43.6807 187.691 44.03C188.064 44.3793 188.256 44.828 188.228 45.2854L188.146 47.6349L192.692 40.3152C193.18 39.4942 194.439 38.7347 195.563 39.2292C196.711 39.6234 197.685 40.2805 198.359 41.1165C198.37 41.1194 202.233 50.4017 201.781 51.1625L200.884 58.8385C199.946 60.4178 198.435 61.7386 196.544 62.6317C194.654 63.5247 192.47 63.9492 190.274 63.8508L183.203 63.5359L183.847 45.0903Z" fill="#E98862"/>
<g opacity="0.2">
<path d="M192.315 48.4346C192.363 48.4521 192.418 48.454 192.467 48.44C192.517 48.4259 192.558 48.397 192.581 48.3593L196.893 41.3942C196.908 41.3752 196.919 41.3538 196.923 41.3314C196.927 41.309 196.926 41.2861 196.918 41.2643C196.91 41.2424 196.897 41.2221 196.879 41.2046C196.861 41.1871 196.838 41.1729 196.812 41.1629C196.787 41.1528 196.759 41.1472 196.73 41.1463C196.702 41.1455 196.673 41.1494 196.647 41.1579C196.62 41.1664 196.597 41.1792 196.577 41.1956C196.557 41.2119 196.542 41.2314 196.532 41.2527L192.221 48.2178C192.197 48.2561 192.194 48.3002 192.211 48.3406C192.228 48.3809 192.265 48.4141 192.313 48.4329L192.315 48.4346Z" fill="#0C0C0C"/>
</g>
<path d="M171.787 121.314C170.85 121.133 169.936 120.882 169.059 120.564L105.71 103.138L125.159 78.6564L164.972 92.5935L176.877 53.7398L206.363 59.4303L190.115 112.458C189.644 113.995 188.797 115.443 187.621 116.72C186.445 117.997 184.964 119.077 183.262 119.899C181.56 120.722 179.671 121.27 177.702 121.513C175.733 121.756 173.723 121.688 171.787 121.314Z" fill="#367CFF"/>
<path d="M191.758 26.2247L188.112 26.7209C186.719 26.9104 185.783 27.9603 186.022 29.0658L191.287 53.4426C191.526 54.5481 192.849 55.2906 194.242 55.1011L197.888 54.6049C199.281 54.4154 200.217 53.3656 199.978 52.2601L194.713 27.8833C194.474 26.7778 193.151 26.0352 191.758 26.2247Z" fill="#292A2E"/>
<path d="M181.704 15.9852L180.59 16.1367C173.687 17.076 169.05 22.279 170.234 27.7579C171.417 33.2368 177.973 36.9169 184.876 35.9777L185.99 35.8261C192.893 34.8868 197.53 29.6838 196.346 24.2049C195.163 18.726 188.607 15.0459 181.704 15.9852Z" fill="#0CBC8B"/>
<path d="M224.307 26.6284L221.93 27.5389L219.19 14.8534L221.73 14.9197C221.942 16.7256 222.258 18.6251 222.68 20.5799C223.139 22.7057 223.69 24.7382 224.307 26.6284Z" fill="#367CFF"/>
<path d="M231.326 19.4048C231.864 21.8954 231.645 24.0032 230.838 24.1128C230.743 24.1184 230.648 24.1065 230.56 24.0781C230.472 24.0498 230.393 24.0056 230.33 23.9492C229.619 23.4334 228.835 21.7985 228.403 19.8044C228.004 17.9527 228.022 16.3128 228.39 15.5504C228.516 15.287 228.684 15.1275 228.892 15.1005C229.7 14.9851 230.789 16.9145 231.326 19.4048Z" fill="#367CFF"/>
<path d="M222.691 20.6212C222.688 20.6073 222.685 20.5938 222.682 20.5803C220.933 12.4924 222.278 3.72224 223.886 0.380814C217.568 5.48602 208.365 10.6967 199.715 12.8192C196.225 13.6758 191.954 14.4579 185.465 15.3344L189.81 35.446C196.297 34.5572 200.652 34.1661 204.302 34.0508C213.348 33.7644 224.213 36.2461 232.312 39.3895C229.394 36.6662 224.444 28.7505 222.697 20.663C222.694 20.6491 222.691 20.6356 222.691 20.6212Z" fill="#0CBC8B"/>
<path d="M193.958 13.0988L180.529 14.926C180.022 14.9949 179.682 15.3763 179.769 15.778L184.235 36.4523C184.322 36.854 184.802 37.1238 185.308 37.0549L198.738 35.2276C199.244 35.1588 199.584 34.7773 199.497 34.3756L195.031 13.7014C194.945 13.2997 194.464 13.0299 193.958 13.0988Z" fill="#292A2E"/>
<path opacity="0.1" d="M193.958 13.0988L180.529 14.926C180.022 14.9949 179.682 15.3763 179.769 15.778L184.235 36.4523C184.322 36.854 184.802 37.1238 185.308 37.0549L198.738 35.2276C199.244 35.1588 199.584 34.7773 199.497 34.3756L195.031 13.7014C194.945 13.2997 194.464 13.0299 193.958 13.0988Z" fill="white"/>
<path d="M235.452 18.8419C237.801 29.7223 236.843 38.9257 233.32 39.4055C232.617 39.5012 231.867 39.2443 231.101 38.6835C231.097 38.6835 231.096 38.6807 231.092 38.6815C227.989 36.4318 224.56 29.2883 222.679 20.5799C220.933 12.4924 221.013 5.33017 222.621 1.99038C223.174 0.839347 223.906 0.142755 224.812 0.019635C228.337 -0.460166 233.101 7.96683 235.452 18.8419Z" fill="#0CBC8B"/>
<path opacity="0.3" d="M235.452 18.8419C237.801 29.7223 236.843 38.9257 233.32 39.4055C232.617 39.5012 231.867 39.2443 231.101 38.6835C231.097 38.6835 231.096 38.6807 231.092 38.6815C227.989 36.4318 224.56 29.2883 222.679 20.5799C220.933 12.4924 221.013 5.33017 222.621 1.99038C223.174 0.839347 223.906 0.142755 224.812 0.019635C228.337 -0.460166 233.101 7.96683 235.452 18.8419Z" fill="#0C0C0C"/>
<path opacity="0.6" d="M228.893 15.107L230.841 24.1251L224.307 26.6284C223.689 24.7382 223.139 22.7057 222.68 20.5799C222.258 18.6251 221.942 16.7256 221.73 14.9197L228.893 15.107Z" fill="white"/>
<path d="M231.326 19.4048C231.864 21.8954 231.645 24.0032 230.838 24.1128C230.743 24.1184 230.648 24.1065 230.56 24.0781C230.472 24.0498 230.393 24.0056 230.33 23.9492C229.619 23.4334 228.835 21.7985 228.403 19.8044C228.004 17.9527 228.022 16.3128 228.39 15.5504C228.516 15.287 228.684 15.1275 228.892 15.1005C229.7 14.9851 230.789 16.9145 231.326 19.4048Z" fill="white"/>
<path d="M192.171 49.3382C192.153 49.0278 192.263 48.7214 192.485 48.4655C192.707 48.2096 193.029 48.0184 193.4 47.9208C193.385 47.8988 193.331 47.8525 193.381 47.8345L191.895 47.6787C191.456 47.6402 191.05 47.477 190.751 47.2192C190.452 46.9614 190.28 46.6264 190.268 46.2761C190.271 45.9299 190.435 45.5968 190.729 45.3413C191.024 45.0858 191.427 44.9261 191.861 44.8931C191.85 44.8821 191.853 44.8661 191.847 44.8522L191.236 44.788C190.823 44.7505 190.439 44.6007 190.149 44.3642C189.858 44.1276 189.68 43.8186 189.644 43.4897C189.627 43.2831 189.667 43.076 189.763 42.8833C189.859 42.6906 190.007 42.5172 190.197 42.3756C190.388 42.234 190.615 42.1277 190.864 42.0643C191.112 42.001 191.375 41.9823 191.634 42.0094L193.043 42.1575C193.043 42.1514 193.036 42.1469 193.036 42.1407C193.037 42.1346 193.048 42.1285 193.05 42.1211C192.676 42.0111 192.36 41.8035 192.154 41.5323C191.948 41.2611 191.864 40.9425 191.916 40.6285C191.984 39.8104 193.179 39.466 194.089 39.5617L196.929 40.0399C197.367 40.1139 197.775 40.2727 198.117 40.5021C198.459 40.7316 198.725 41.0245 198.89 41.355C200.321 44.2141 203.833 51.7523 200.926 51.4472L193.771 50.6953C193.352 50.6426 192.967 50.4805 192.677 50.2347C192.387 49.9889 192.209 49.6734 192.171 49.3382Z" fill="#E98862"/>
<path d="M73.8136 348.797C73.8136 348.797 64.0536 360.198 72.704 368.405C81.3545 376.613 71.5512 380.766 71.5512 380.766L36.268 351.067L54.963 337.078L73.8136 348.797Z" fill="#367CFF"/>
<path d="M130.185 165.499C130.185 165.499 163.129 255.431 155.364 268.577C147.73 281.502 72.905 357.007 72.905 357.007L47.8499 339.675L114.97 259.917C114.97 259.917 96.6259 213.856 86.7097 189.701C80.7314 175.139 70.6724 175.603 69.7175 160.307L130.185 165.499Z" fill="#262626"/>
<path d="M92.3576 203.545C92.3576 203.545 85.1497 185.757 88.6191 190.103C106.881 212.98 107.248 240.582 107.248 240.582L92.3576 203.545Z" fill="#0A0A0A"/>
<path d="M113.579 357.882C113.579 357.882 117.927 370.492 131.385 371.127C144.843 371.763 141.925 380.273 141.925 380.273H90.4951V359.879L113.579 357.882Z" fill="#367CFF"/>
<path d="M38.3645 163.247C38.3645 163.247 38.1362 162.406 38.0038 167.321C37.9084 170.792 36.133 183.077 42.2731 202.453C53.7771 238.755 88.228 366.365 88.228 366.365L122.023 366.14L87.8337 163.97L38.3645 163.247Z" fill="#262626"/>
<path d="M37.8417 163.393L37.7306 163.398C37.7306 163.398 37.8107 161.708 37.8417 163.393Z" fill="#333333"/>
<path d="M134.551 114.869L133.814 125.178L134.426 125.206L135.164 114.896L134.551 114.869Z" fill="#0C0C0C"/>
<path d="M56.7421 40.2567C56.7421 40.2567 55.6082 51.7323 52.2944 55.8689C42.7472 67.7776 39.838 81.2472 49.1177 88.3833C58.3974 95.5194 118.26 96.1673 123.031 79.9935C127.048 66.377 118.876 64.8337 117.047 53.5541C116.219 48.4501 113.893 37.7423 113.893 37.7423" fill="#0A0A0A"/>
<path d="M107.792 77.408C107.689 77.3973 106.542 92.5015 84.4374 91.1827C69.1346 90.2726 63.6784 77.3867 63.3279 77.3867C64.9771 77.1086 67.756 76.7036 68.4888 76.3931C70.8982 75.3656 73.8801 74.2964 74.6568 70.5824C75.1041 68.4419 74.3475 57.4907 74.5784 55.3252L98.0684 59.4864C97.7401 64.0606 95.4431 74.6646 103.494 76.5433C104.834 76.8517 106.277 77.1368 107.792 77.408Z" fill="#E98862"/>
<path opacity="0.52" d="M98.3977 72.2075C98.0296 71.2664 97.7927 70.296 97.6911 69.3139C97.4329 67.0729 97.4848 64.8161 97.8458 62.584C93.0714 62.0725 88.5735 60.5084 84.8631 58.0695C84.4271 59.3481 82.0286 64.9344 82.6924 66.1496C83.9468 68.4464 89.8462 72.2075 98.3977 72.2075Z" fill="#0C0C0C"/>
<path d="M95.2844 67.454C86.0134 68.0803 74.0744 65.0305 71.7352 55.2197L69.6263 46.3677C67.287 36.557 71.8825 27.6289 83.5211 25.8807C95.1581 24.1332 105.754 30.7789 108.093 40.5897L109.027 44.5087C109.925 48.2726 111.825 66.3374 95.2844 67.454Z" fill="#E98862"/>
<path d="M103.021 44.9357C103.827 44.9357 104.48 44.4172 104.48 43.7777C104.48 43.1382 103.827 42.6197 103.021 42.6197C102.215 42.6197 101.562 43.1382 101.562 43.7777C101.562 44.4172 102.215 44.9357 103.021 44.9357Z" fill="#0C0C0C"/>
<path d="M88.4022 46.5923C89.2079 46.5923 89.8612 46.0738 89.8612 45.4343C89.8612 44.7948 89.2079 44.2763 88.4022 44.2763C87.5964 44.2763 86.9432 44.7948 86.9432 45.4343C86.9432 46.0738 87.5964 46.5923 88.4022 46.5923Z" fill="#0C0C0C"/>
<path opacity="0.52" d="M98.9657 53.8515C98.9734 53.8515 98.9811 53.8515 98.9889 53.849C99.4602 53.7753 99.9261 53.6811 100.384 53.5668C101.069 53.3921 101.965 53.1029 101.848 52.6125C101.715 52.0533 98.3477 46.3133 97.9643 45.6589C97.9477 45.6306 97.9242 45.6052 97.8952 45.5842C97.8663 45.5631 97.8324 45.5468 97.7954 45.5361C97.7585 45.5255 97.7193 45.5207 97.6801 45.5221C97.6408 45.5234 97.6023 45.5309 97.5667 45.5441C97.5311 45.5573 97.4991 45.5759 97.4726 45.5989C97.4461 45.6219 97.4255 45.6488 97.4121 45.6781C97.3986 45.7075 97.3926 45.7386 97.3943 45.7697C97.3961 45.8009 97.4055 45.8314 97.4221 45.8597C98.8585 48.3045 101.171 52.3225 101.261 52.7004C101.184 52.8751 100.047 53.2064 98.8775 53.3827C98.8022 53.3946 98.7355 53.429 98.6913 53.4789C98.647 53.5287 98.6287 53.5901 98.64 53.6504C98.6513 53.7107 98.6915 53.7653 98.7521 53.8027C98.8128 53.8401 98.8892 53.8576 98.9657 53.8515Z" fill="#0C0C0C"/>
<path opacity="0.52" d="M97.2423 58.0871C99.1407 57.892 100.955 57.3455 102.538 56.4918C102.604 56.4572 102.65 56.4034 102.665 56.3422C102.681 56.281 102.666 56.2172 102.623 56.1648C102.58 56.1124 102.513 56.0756 102.436 56.0624C102.359 56.0492 102.278 56.0606 102.212 56.0942C98.7858 57.8658 95.3813 58.1525 92.3684 56.923C92.3074 56.8967 92.2446 56.8731 92.1803 56.8522C92.1059 56.8314 92.0242 56.8348 91.9529 56.8616C91.8817 56.8884 91.8267 56.9365 91.7999 56.9954C91.7731 57.0542 91.7767 57.1191 91.8099 57.1759C91.8431 57.2327 91.9033 57.2767 91.9773 57.2984C92.001 57.3062 92.0407 57.323 92.0948 57.3451C93.6793 57.9935 95.4716 58.2519 97.2423 58.0871Z" fill="#0C0C0C"/>
<path d="M60.3141 49.4527L70.7467 47.9343C78.6483 45.3983 81.0375 34.5408 81.0375 34.5408C81.0375 34.5408 90.6352 41.9648 113.893 37.7423C113.893 37.7423 109.23 11.9987 74.8691 19.4841C63.7887 21.8974 55.8381 30.7592 56.8312 42.6025C57.5228 50.9023 60.3141 49.4527 60.3141 49.4527Z" fill="#0A0A0A"/>
<path d="M73.171 58.1002C69.634 58.6319 66.0506 56.0587 65.3812 53.2518C64.7117 50.445 67.2102 48.4661 70.7467 47.9343L73.0179 49.5419L76.2132 57.6433L73.171 58.1002Z" fill="#E98862"/>
<path d="M100.095 40.9672C101.128 40.4382 102.32 40.1395 103.548 40.1025C104.152 40.0813 104.757 40.132 105.342 40.253C105.921 40.3711 106.48 40.5468 107.004 40.7758C107.075 40.8057 107.129 40.8565 107.155 40.9175C107.18 40.9784 107.174 41.0448 107.139 41.1026C107.104 41.1604 107.042 41.2051 106.966 41.2274C106.891 41.2497 106.807 41.2477 106.733 41.222L106.711 41.2138C106.226 41.0248 105.714 40.8849 105.185 40.7974C104.663 40.7086 104.127 40.6831 103.595 40.7218C102.539 40.7916 101.525 41.0821 100.657 41.5636L100.629 41.5799C100.528 41.6379 100.402 41.6617 100.28 41.6461C100.157 41.6305 100.047 41.5769 99.9737 41.4969C99.9007 41.4169 99.8708 41.3173 99.8904 41.2198C99.91 41.1223 99.9776 41.0349 100.078 40.977L100.095 40.9672Z" fill="#0C0C0C"/>
<path d="M90.7909 42.706C89.7623 42.506 88.6853 42.5256 87.6693 42.7629C87.1558 42.8796 86.6674 43.057 86.2206 43.2893C85.7679 43.5227 85.3537 43.8001 84.9878 44.1151L84.9713 44.1286C84.9141 44.1742 84.8369 44.2003 84.7559 44.2014C84.6749 44.2026 84.5965 44.1787 84.5372 44.1349C84.478 44.0911 84.4425 44.0307 84.4383 43.9665C84.4341 43.9022 84.4615 43.8393 84.5147 43.7908C84.8994 43.427 85.3403 43.1031 85.8269 42.8267C86.3171 42.5459 86.8577 42.3253 87.4307 42.1722C88.592 41.8548 89.8396 41.7915 91.0424 41.989C91.164 42.0097 91.2703 42.0679 91.3379 42.1508C91.4054 42.2338 91.4287 42.3346 91.4026 42.4311C91.3765 42.5277 91.3032 42.6121 91.1987 42.6657C91.0942 42.7193 90.9672 42.7378 90.8455 42.7171L90.8259 42.7134L90.7909 42.706Z" fill="#0C0C0C"/>
<path opacity="0.52" d="M97.6458 60.3147C97.9898 60.2829 98.3297 60.2282 98.6621 60.1511C98.7383 60.1337 98.8027 60.093 98.8411 60.038C98.8795 59.983 98.8888 59.9181 98.867 59.8576C98.8451 59.7971 98.7939 59.746 98.7245 59.7155C98.6552 59.685 98.5734 59.6776 98.4972 59.695C96.4965 60.1519 95.3591 59.5465 95.3117 59.5203C95.2468 59.4841 95.1664 59.4699 95.0883 59.4808C95.0101 59.4916 94.9406 59.5267 94.895 59.5782C94.8494 59.6297 94.8315 59.6935 94.8452 59.7555C94.8589 59.8176 94.903 59.8727 94.9679 59.9089C95.7748 60.2855 96.7209 60.4289 97.6458 60.3147Z" fill="#0C0C0C"/>
<path d="M70.7699 47.8296L70.6668 47.6001C83.8849 43.8341 80.6526 33.5386 80.6185 33.4348L80.9154 33.373C80.9494 33.4789 84.256 43.9871 70.7699 47.8296Z" fill="#0C0C0C"/>
<path opacity="0.1" d="M89.5855 54.5743C91.1117 54.444 92.2513 53.618 92.1308 52.7295C92.0104 51.8409 90.6755 51.2262 89.1493 51.3566C87.6231 51.4869 86.4835 52.3129 86.6039 53.2014C86.7244 54.09 88.0593 54.7046 89.5855 54.5743Z" fill="#0C0C0C"/>
<path opacity="0.1" d="M105.74 51.1751C105.863 52.0623 107.198 52.6763 108.724 52.5475C108.988 52.5247 109.248 52.4804 109.5 52.4153C109.586 51.3596 109.603 50.3436 109.58 49.4024C109.158 49.3145 108.719 49.2901 108.286 49.3304C106.76 49.4588 105.621 50.2843 105.74 51.1751Z" fill="#0C0C0C"/>
<path d="M135.256 110.655C134.56 117.148 131.173 157.651 130.503 165.647H38.0342C37.5126 158.435 35.3857 126.898 33.4093 112.795C31.5225 99.3373 27.8211 92.5984 30.5345 88.6205C34.9667 82.1168 47.0825 78.3602 55.3428 77.4726C60.3872 76.9306 67.974 76.542 67.974 76.542C67.974 76.542 68.6161 86.8559 83.9334 87.4298C104.785 88.2107 103.392 76.542 103.495 76.542C106.873 76.542 122.089 77.0329 126.81 79.2552C139.673 85.3008 136.733 96.8978 135.256 110.655Z" fill="#367CFF"/>
<path d="M192.751 115.191L184.212 148.128C184.039 148.796 183.581 149.398 182.917 149.831C182.253 150.265 181.421 150.505 180.561 150.511L121.769 150.908C121.208 150.912 120.653 150.816 120.145 150.627C119.637 150.439 119.189 150.162 118.833 149.819C118.477 149.475 118.222 149.072 118.087 148.64C117.952 148.208 117.941 147.758 118.053 147.322L126.591 114.385C126.765 113.716 127.222 113.115 127.887 112.681C128.551 112.247 129.383 112.008 130.243 112.002L189.035 111.604C189.596 111.601 190.151 111.697 190.659 111.885C191.167 112.074 191.615 112.35 191.971 112.694C192.328 113.038 192.582 113.44 192.717 113.872C192.852 114.304 192.864 114.755 192.751 115.191Z" fill="#292A2E"/>
<path d="M188.355 116.539C189.331 116.539 190.122 115.911 190.122 115.137C190.122 114.362 189.331 113.735 188.355 113.735C187.38 113.735 186.589 114.362 186.589 115.137C186.589 115.911 187.38 116.539 188.355 116.539Z" fill="white"/>
<path d="M137.929 138.586C137.96 139.02 137.793 139.448 137.458 139.792C137.123 140.135 136.643 140.371 136.106 140.456L134.296 140.773C134.329 140.781 134.358 140.796 134.381 140.815C134.405 140.835 134.422 140.859 134.431 140.885C134.436 140.915 134.427 140.946 134.406 140.972C134.842 141.069 135.228 141.272 135.512 141.551C135.795 141.83 135.963 142.172 135.99 142.53C135.992 142.948 135.817 143.354 135.493 143.682C135.17 144.011 134.715 144.243 134.204 144.342L118.921 147.035C118.14 147.174 117.342 147.244 116.541 147.244C114.757 147.244 113 146.9 111.421 146.24C109.843 145.581 108.49 144.627 107.479 143.461C106.407 142.226 105.984 140.709 106.301 139.231C106.617 137.754 107.647 136.432 109.172 135.548L122.173 128.005C122.459 127.839 122.792 127.73 123.142 127.689L121.946 132.3L122.265 132.242L122.332 132.232L132.302 130.62C133.413 130.425 134.934 130.747 135.131 131.749C135.236 132.134 135.174 132.535 134.956 132.887C134.738 133.24 134.376 133.524 133.928 133.692C133.934 133.697 133.947 133.702 133.947 133.712C133.947 133.722 133.941 133.726 133.941 133.736L135.665 133.434C135.98 133.379 136.307 133.38 136.622 133.436C136.937 133.493 137.232 133.605 137.486 133.763C137.74 133.922 137.947 134.123 138.091 134.352C138.236 134.582 138.314 134.834 138.321 135.09C138.321 135.499 138.142 135.896 137.816 136.213C137.489 136.53 137.035 136.747 136.529 136.828L135.787 136.96C135.781 136.979 135.787 136.999 135.775 137.013C136.316 137.017 136.836 137.179 137.234 137.47C137.632 137.761 137.88 138.159 137.929 138.586Z" fill="#E98862"/>
<g opacity="0.25">
<path d="M124.016 135.335C124.027 135.376 124.058 135.412 124.102 135.435C124.146 135.458 124.2 135.466 124.252 135.457L133.792 133.903C133.844 133.895 133.89 133.87 133.92 133.834C133.949 133.799 133.96 133.756 133.949 133.714C133.938 133.672 133.907 133.636 133.862 133.613C133.818 133.589 133.763 133.581 133.711 133.589L124.171 135.144C124.119 135.153 124.074 135.177 124.045 135.213C124.016 135.248 124.006 135.291 124.017 135.333L124.016 135.335Z" fill="#0C0C0C"/>
</g>
<g opacity="0.25">
<path d="M124.762 138.693C124.774 138.734 124.805 138.769 124.85 138.791C124.894 138.814 124.947 138.822 124.999 138.814L135.645 137.081C135.697 137.072 135.743 137.048 135.773 137.012C135.802 136.977 135.813 136.933 135.802 136.892C135.789 136.851 135.758 136.816 135.713 136.793C135.669 136.771 135.616 136.762 135.564 136.769L124.918 138.5C124.892 138.504 124.867 138.513 124.845 138.524C124.823 138.536 124.805 138.551 124.79 138.569C124.775 138.586 124.765 138.606 124.76 138.627C124.755 138.647 124.756 138.669 124.761 138.689L124.762 138.693Z" fill="#0C0C0C"/>
</g>
<g opacity="0.25">
<path d="M125.544 142.333C125.555 142.374 125.586 142.41 125.63 142.433C125.675 142.456 125.728 142.464 125.78 142.456L134.272 141.074C134.324 141.065 134.369 141.04 134.398 141.005C134.427 140.97 134.437 140.927 134.427 140.886C134.416 140.844 134.385 140.808 134.341 140.785C134.297 140.761 134.244 140.753 134.192 140.761L125.698 142.141C125.646 142.149 125.6 142.174 125.571 142.209C125.541 142.245 125.531 142.288 125.541 142.329L125.544 142.333Z" fill="#0C0C0C"/>
</g>
<path d="M117.974 151.835L35.0595 163.727C32.4721 163.95 29.8547 163.695 27.4126 162.981C24.9706 162.266 22.7702 161.113 20.9843 159.61C19.1983 158.108 17.8753 156.297 17.1191 154.32C16.3629 152.344 16.1941 150.255 16.6258 148.218L28.2334 93.4574C28.9746 89.9608 31.4355 86.8411 35.0748 84.7846C38.714 82.7281 43.2336 81.9033 47.6391 82.4915C52.0446 83.0798 55.9753 85.0329 58.5664 87.9213C61.1575 90.8098 62.1968 94.3968 61.4556 97.8934L53.5401 135.59L114.329 129.531L117.974 151.835Z" fill="#367CFF"/>
<path d="M35.059 163.97C34.9854 163.966 34.9159 163.942 34.8632 163.901C34.8105 163.86 34.7779 163.805 34.7714 163.747C34.7648 163.689 34.7848 163.631 34.8276 163.583C34.8704 163.535 34.9333 163.501 35.0048 163.487L117.633 151.636L114.064 129.803L53.5787 135.832C53.5316 135.837 53.4837 135.833 53.439 135.82C53.3942 135.807 53.3538 135.787 53.321 135.759C53.288 135.732 53.2635 135.699 53.2493 135.662C53.2352 135.626 53.2319 135.588 53.2396 135.55L58.2717 111.458C58.2778 111.426 58.2918 111.396 58.313 111.369C58.3341 111.341 58.3619 111.318 58.3948 111.299C58.4276 111.28 58.4648 111.267 58.5042 111.26C58.5436 111.253 58.5844 111.252 58.6242 111.258C58.7041 111.269 58.7753 111.304 58.8226 111.357C58.8698 111.409 58.8893 111.474 58.8767 111.538L53.9101 135.31L114.291 129.291C114.372 129.284 114.453 129.301 114.517 129.341C114.581 129.38 114.623 129.438 114.634 129.501L118.279 151.805C118.289 151.867 118.268 151.929 118.222 151.979C118.175 152.03 118.106 152.064 118.029 152.075L35.1141 163.967C35.0959 163.969 35.0774 163.97 35.059 163.97Z" fill="#0C0C0C"/>
<path d="M53.4932 135.351L48.1595 136.028L48.2565 136.509L53.5902 135.832L53.4932 135.351Z" fill="#0C0C0C"/>
<path d="M135.217 111.459H135.203C135.135 111.456 135.071 111.432 135.025 111.391C134.98 111.351 134.956 111.298 134.959 111.244L135.339 105.409C135.343 105.355 135.373 105.304 135.424 105.268C135.475 105.232 135.542 105.213 135.61 105.216C135.679 105.218 135.743 105.243 135.789 105.283C135.835 105.323 135.858 105.376 135.855 105.431L135.475 111.265C135.471 111.318 135.443 111.367 135.395 111.403C135.347 111.439 135.283 111.459 135.217 111.459Z" fill="#0C0C0C"/>
<path d="M113.397 315.259L83.0387 346.704L85.9933 358.12L113.579 316.175" fill="#0A0A0A"/>
<path d="M322.835 160.73C322.742 161.05 322.52 161.337 322.203 161.547C321.885 161.757 321.49 161.879 321.077 161.894C321.084 161.92 321.123 161.979 321.066 161.986L322.514 162.486C322.946 162.628 323.299 162.888 323.508 163.219C323.718 163.55 323.77 163.93 323.655 164.29C323.53 164.641 323.244 164.943 322.853 165.136C322.463 165.329 321.995 165.4 321.542 165.334C321.55 165.348 321.542 165.364 321.542 165.379L322.137 165.583C322.543 165.718 322.879 165.959 323.087 166.267C323.295 166.574 323.364 166.929 323.281 167.272C323.225 167.486 323.11 167.687 322.944 167.862C322.778 168.036 322.565 168.178 322.321 168.279C322.077 168.38 321.808 168.436 321.533 168.444C321.258 168.452 320.984 168.412 320.731 168.325L319.358 167.851C319.358 167.857 319.361 167.863 319.358 167.87C319.354 167.876 319.342 167.88 319.337 167.887C319.677 168.086 319.922 168.37 320.033 168.693C320.144 169.017 320.114 169.361 319.948 169.669C319.583 170.487 318.247 170.565 317.361 170.258L314.658 169.119C314.24 168.942 313.883 168.686 313.62 168.373C313.356 168.061 313.194 167.702 313.147 167.328C312.73 164.084 311.893 155.59 314.727 156.57L321.704 158.979C322.11 159.13 322.441 159.384 322.646 159.701C322.851 160.018 322.917 160.38 322.835 160.73Z" fill="#E98862"/>
<path d="M0.360758 381H521.099C521.195 381 521.287 380.97 521.354 380.916C521.422 380.862 521.46 380.79 521.46 380.714C521.46 380.638 521.422 380.565 521.354 380.511C521.287 380.458 521.195 380.427 521.099 380.427H0.360758C0.265079 380.427 0.173319 380.458 0.105664 380.511C0.0380083 380.565 0 380.638 0 380.714C0 380.79 0.0380083 380.862 0.105664 380.916C0.173319 380.97 0.265079 381 0.360758 381Z" fill="#292A2E"/>
<g opacity="0.65">
<path d="M0.360758 381H521.099C521.195 381 521.287 380.97 521.354 380.916C521.422 380.862 521.46 380.79 521.46 380.714C521.46 380.638 521.422 380.565 521.354 380.511C521.287 380.458 521.195 380.427 521.099 380.427H0.360758C0.265079 380.427 0.173319 380.458 0.105664 380.511C0.0380083 380.565 0 380.638 0 380.714C0 380.79 0.0380083 380.862 0.105664 380.916C0.173319 380.97 0.265079 381 0.360758 381Z" fill="#292A2E"/>
</g>
</g>
<defs>
<clipPath id="clip0_3_5">
<rect width="536" height="381" fill="white"/>
</clipPath>
</defs>
</svg>
