<svg width="467" height="224" viewBox="0 0 467 224" fill="none" xmlns="http://www.w3.org/2000/svg">
<g clip-path="url(#clip0_106_23)">
<path d="M455.102 86.7359L450.152 97.6316L453.662 98.8117L458.612 87.9161L455.102 86.7359Z" fill="#367CFF"/>
<path d="M145.839 60.0184L143.032 62.1812L152.105 70.8955L154.912 68.7327L145.839 60.0184Z" fill="#0CBC8B"/>
<path d="M187.435 99.0221L176.551 106.035L178.81 108.63L189.695 101.617L187.435 99.0221Z" fill="#367CFF"/>
<path d="M313.326 18.5418L310.743 20.9026L320.647 28.9198L323.23 26.5589L313.326 18.5418Z" fill="#367CFF"/>
<path d="M241.309 21.1488L234.531 31.291L237.799 32.9067L244.577 22.7644L241.309 21.1488Z" fill="#0CBC8B"/>
<path d="M339.735 107.882L336.548 109.612L343.806 119.505L346.993 117.775L339.735 107.882Z" fill="#0CBC8B"/>
<path d="M191.954 156.057L188.583 157.506L194.661 167.971L198.032 166.522L191.954 156.057Z" fill="#0CBC8B"/>
<path d="M142.631 128.521L138.726 139.727L142.336 140.658L146.241 129.452L142.631 128.521Z" fill="#367CFF"/>
<path d="M378.543 163.439L367.248 169.955L369.347 172.647L380.642 166.132L378.543 163.439Z" fill="#367CFF"/>
<path d="M380.235 0.000864487L373.457 10.1429L376.724 11.7585L383.502 1.61651L380.235 0.000864487Z" fill="#0CBC8B"/>
<path d="M3.50973 82.9735L-0.000244141 84.1537L4.95057 95.0493L8.46054 93.8691L3.50973 82.9735Z" fill="#0CBC8B"/>
<path d="M367.868 69.513L365.608 72.1079L376.493 79.1212L378.752 76.5263L367.868 69.513Z" fill="#0CBC8B"/>
<path d="M62.1247 21.7143L52.2205 29.7314L54.803 32.0923L64.7073 24.0751L62.1247 21.7143Z" fill="#367CFF"/>
<path d="M171.826 12.1671L168.558 13.7828L175.336 23.9251L178.604 22.3094L171.826 12.1671Z" fill="#367CFF"/>
<path d="M38.5652 139.508L31.3076 149.401L34.4947 151.131L41.7523 141.238L38.5652 139.508Z" fill="#0CBC8B"/>
<path d="M6.41904 166.609L4.31995 169.303L15.621 175.819L17.7201 173.125L6.41904 166.609Z" fill="#367CFF"/>
<path d="M442.421 37.4157L439.154 39.0314L445.932 49.1734L449.199 47.5577L442.421 37.4157Z" fill="#367CFF"/>
<path d="M300.83 65.0551L291.757 73.7694L294.564 75.9322L303.637 67.2179L300.83 65.0551Z" fill="#367CFF"/>
<path d="M221.18 163.28L215.102 173.745L218.473 175.194L224.551 164.729L221.18 163.28Z" fill="#0CBC8B"/>
<path d="M270.505 135.745L266.895 136.676L270.8 147.882L274.41 146.951L270.505 135.745Z" fill="#367CFF"/>
<path d="M271.72 142.14L258.875 133.741C258.593 133.557 258.269 133.425 257.924 133.354C257.579 133.283 257.221 133.274 256.873 133.329C256.524 133.384 256.192 133.5 255.899 133.671C255.605 133.842 255.356 134.064 255.167 134.322C254.837 134.808 254.728 135.383 254.861 135.934C254.995 136.485 255.362 136.975 255.891 137.307L258.645 139.107L246.962 136.864C245.669 136.595 243.881 136.977 243.626 138.245C243.491 138.728 243.549 139.236 243.793 139.686C244.036 140.136 244.45 140.502 244.966 140.724C244.96 140.734 244.955 140.744 244.952 140.755C244.951 140.763 244.951 140.771 244.952 140.78L242.956 140.365C242.587 140.289 242.202 140.284 241.83 140.351C241.458 140.419 241.108 140.557 240.806 140.756C240.504 140.954 240.257 141.208 240.083 141.499C239.91 141.79 239.814 142.111 239.803 142.438C239.797 142.953 239.998 143.454 240.37 143.857C240.743 144.261 241.265 144.542 241.849 144.654L242.697 144.83C242.703 144.853 242.713 144.876 242.727 144.896C242.122 144.892 241.534 145.073 241.069 145.407C240.604 145.741 240.292 146.206 240.189 146.72C240.096 147.285 240.254 147.859 240.631 148.328C241.008 148.797 241.577 149.127 242.224 149.251L244.334 149.689C244.299 149.701 244.268 149.72 244.244 149.744C244.219 149.769 244.201 149.798 244.192 149.829C244.184 149.866 244.188 149.905 244.205 149.941C243.664 150.066 243.186 150.34 242.844 150.721C242.502 151.103 242.315 151.57 242.311 152.052C242.32 152.558 242.527 153.046 242.899 153.439C243.271 153.831 243.785 154.104 244.36 154.213L262.154 157.911C264.643 158.428 267.256 158.294 269.656 157.526C272.056 156.758 274.135 155.391 275.627 153.6C276.912 152.055 277.447 150.141 277.118 148.262C276.789 146.384 275.621 144.69 273.863 143.541L271.72 142.14Z" fill="#E98862"/>
<g opacity="0.2">
<path d="M256.517 142.994C256.502 143.045 256.465 143.09 256.412 143.117C256.36 143.145 256.297 143.154 256.237 143.143L245.129 140.995C245.099 140.989 245.07 140.978 245.045 140.963C245.02 140.947 244.998 140.928 244.982 140.905C244.965 140.883 244.954 140.858 244.949 140.832C244.943 140.805 244.944 140.779 244.951 140.753C244.958 140.727 244.97 140.702 244.988 140.68C245.006 140.659 245.029 140.64 245.055 140.626C245.081 140.612 245.11 140.602 245.141 140.597C245.171 140.593 245.202 140.594 245.233 140.599L256.34 142.747C256.37 142.753 256.399 142.764 256.424 142.779C256.45 142.795 256.471 142.814 256.488 142.837C256.504 142.859 256.515 142.885 256.521 142.911C256.526 142.937 256.525 142.964 256.518 142.99L256.517 142.994Z" fill="#0C0C0C"/>
</g>
<g opacity="0.2">
<path d="M255.552 147.234C255.537 147.286 255.499 147.331 255.446 147.358C255.393 147.386 255.33 147.395 255.269 147.383L242.873 144.988C242.843 144.982 242.814 144.971 242.789 144.956C242.763 144.94 242.742 144.921 242.725 144.898C242.709 144.876 242.697 144.85 242.692 144.824C242.687 144.798 242.688 144.771 242.695 144.745C242.71 144.693 242.748 144.649 242.801 144.62C242.853 144.592 242.917 144.582 242.977 144.592L255.374 146.987C255.404 146.992 255.433 147.003 255.458 147.019C255.483 147.034 255.505 147.054 255.522 147.076C255.538 147.099 255.549 147.124 255.554 147.15C255.56 147.177 255.559 147.204 255.552 147.23V147.234Z" fill="#0C0C0C"/>
</g>
<g opacity="0.2">
<path d="M254.538 151.832C254.523 151.883 254.485 151.927 254.433 151.955C254.38 151.983 254.317 151.992 254.257 151.98L244.369 150.07C244.308 150.059 244.255 150.026 244.222 149.981C244.188 149.936 244.177 149.881 244.191 149.828C244.204 149.776 244.242 149.73 244.295 149.701C244.347 149.673 244.411 149.663 244.472 149.675L254.36 151.585C254.391 151.591 254.42 151.602 254.445 151.617C254.47 151.632 254.492 151.652 254.509 151.675C254.525 151.697 254.536 151.722 254.542 151.749C254.547 151.775 254.546 151.802 254.539 151.828L254.538 151.832Z" fill="#0C0C0C"/>
</g>
<path d="M210.738 84.3698L217.91 71.9372C218.067 71.664 218.289 71.4221 218.562 71.2267C218.834 71.0314 219.15 70.887 219.491 70.8026C219.832 70.7183 220.189 70.6959 220.54 70.737C220.892 70.778 221.229 70.8815 221.531 71.0408C222.079 71.3498 222.474 71.8227 222.639 72.3678C222.805 72.913 222.729 73.4915 222.427 73.9913L220.888 76.6572L230.196 70.1846C231.217 69.4491 233.016 69.1083 233.899 70.1473C234.269 70.5281 234.479 71.0055 234.493 71.5017C234.507 71.998 234.326 72.4837 233.978 72.8797C233.988 72.8863 233.998 72.8938 234.006 72.902C234.012 72.9092 234.016 72.9166 234.02 72.9243L235.594 71.7897C235.885 71.5798 236.228 71.4285 236.596 71.3469C236.964 71.2653 237.349 71.2553 237.722 71.3178C238.095 71.3802 238.448 71.5136 238.753 71.708C239.059 71.9024 239.31 72.1531 239.489 72.4417C239.76 72.9011 239.839 73.4266 239.714 73.9303C239.589 74.434 239.266 74.8854 238.8 75.209L238.13 75.6916C238.138 75.7146 238.14 75.7387 238.137 75.7625C238.678 75.5268 239.298 75.4641 239.887 75.5857C240.476 75.7072 240.995 76.005 241.353 76.4259C241.728 76.8964 241.883 77.4713 241.787 78.0357C241.691 78.6002 241.351 79.1128 240.835 79.4711L239.171 80.6694C239.209 80.6666 239.246 80.6715 239.281 80.6838C239.316 80.696 239.347 80.7153 239.371 80.7399C239.398 80.7705 239.414 80.8072 239.418 80.8456C239.967 80.7505 240.537 80.8133 241.041 81.0242C241.544 81.2352 241.953 81.5826 242.204 82.0131C242.458 82.4697 242.525 82.9866 242.394 83.48C242.264 83.9734 241.943 84.4144 241.485 84.7317L227.452 94.8436C225.489 96.2583 223.079 97.1364 220.532 97.3654C217.985 97.5943 215.417 97.1637 213.156 96.1286C211.207 95.2363 209.739 93.7254 209.064 91.9171C208.389 90.1087 208.561 88.1452 209.542 86.4438L210.738 84.3698Z" fill="#E98862"/>
<g opacity="0.2">
<path d="M224.8 79.3256C224.84 79.3665 224.897 79.3922 224.959 79.3971C225.021 79.402 225.082 79.3858 225.13 79.352L233.974 73.1853C234.022 73.1514 234.053 73.1024 234.06 73.0489C234.066 72.9955 234.048 72.942 234.008 72.9002C233.969 72.8585 233.912 72.8319 233.85 72.8263C233.788 72.8207 233.726 72.8366 233.677 72.8704L224.833 79.0371C224.785 79.0709 224.754 79.1197 224.748 79.1728C224.741 79.2259 224.759 79.2791 224.798 79.3208L224.8 79.3256Z" fill="#0C0C0C"/>
</g>
<g opacity="0.2">
<path d="M227.854 82.7562C227.894 82.797 227.951 82.8226 228.013 82.8275C228.075 82.8323 228.136 82.816 228.184 82.7822L238.054 75.9003C238.102 75.8664 238.132 75.8177 238.139 75.7645C238.145 75.7114 238.127 75.6583 238.088 75.6166C238.048 75.5767 237.991 75.5515 237.93 75.5459C237.869 75.5403 237.808 75.5549 237.758 75.5866L227.885 82.4673C227.837 82.5011 227.807 82.5499 227.8 82.603C227.793 82.6561 227.812 82.7093 227.85 82.751L227.854 82.7562Z" fill="#0C0C0C"/>
</g>
<g opacity="0.2">
<path d="M231.137 86.4875C231.177 86.5284 231.234 86.554 231.296 86.559C231.357 86.5639 231.419 86.5477 231.467 86.5139L239.34 81.0243C239.388 80.9905 239.419 80.9414 239.426 80.888C239.432 80.8345 239.414 80.781 239.374 80.7392C239.335 80.6975 239.278 80.6709 239.216 80.6653C239.154 80.6597 239.092 80.6756 239.043 80.7095L231.168 86.199C231.12 86.2328 231.089 86.2816 231.083 86.3347C231.076 86.3878 231.094 86.441 231.133 86.4827L231.137 86.4875Z" fill="#0C0C0C"/>
</g>
<path d="M49.7923 73.71C49.7923 73.71 48.7809 86.7643 45.367 91.4993C35.5377 105.134 32.69 120.473 42.5331 128.487C52.3761 136.501 115.158 136.612 119.914 118.18C123.919 102.662 115.326 100.993 113.235 88.1935C112.289 82.4013 109.686 70.2555 109.686 70.2555" fill="#0A0A0A"/>
<path d="M103.666 115.478C103.558 115.465 102.355 132.631 79.173 131.135C63.1246 130.1 57.4025 115.452 57.035 115.452C58.7653 115.136 61.6789 114.676 62.4472 114.323C64.9745 113.155 68.1 111.94 68.9159 107.718C69.387 105.287 68.5885 92.8374 68.8339 90.3745L93.4681 95.1058C93.1238 100.305 90.7147 112.358 99.1587 114.491C100.563 114.845 102.077 115.17 103.666 115.478Z" fill="#E98862"/>
<path opacity="0.5" d="M93.8133 109.566C93.4275 108.497 93.179 107.394 93.0724 106.277C92.8017 103.73 92.8557 101.165 93.2335 98.628C88.2268 98.0466 83.5102 96.2689 79.6195 93.4967C79.1621 94.9498 76.6461 101.3 77.3428 102.681C78.6585 105.292 84.8451 109.566 93.8133 109.566Z" fill="#0C0C0C"/>
<path d="M90.628 104.219C80.9155 105.029 68.3492 101.685 65.746 90.5588L63.3973 80.5199C60.7941 69.394 65.4771 59.1986 77.6547 57.0903C89.8328 54.9831 101.045 62.425 103.648 73.5512L104.689 77.9957C105.687 82.2647 107.956 102.776 90.628 104.219Z" fill="#E98862"/>
<path opacity="0.1" d="M84.4542 89.6387C86.0525 89.4747 87.2348 88.5242 87.095 87.5157C86.9551 86.5073 85.546 85.8228 83.9477 85.9868C82.3494 86.1509 81.1671 87.1014 81.307 88.1098C81.4468 89.1182 82.8559 89.8028 84.4542 89.6387Z" fill="#0C0C0C"/>
<path opacity="0.1" d="M101.343 85.607C101.484 86.614 102.895 87.2976 104.493 87.1355C104.77 87.107 105.042 87.0539 105.305 86.9771C105.38 85.7764 105.384 84.6215 105.343 83.5521C104.899 83.4566 104.439 83.4334 103.985 83.4836C102.386 83.6457 101.204 84.596 101.343 85.607Z" fill="#0C0C0C"/>
<path opacity="0.5" d="M94.2807 88.7195C94.2886 88.7188 94.2964 88.7178 94.3042 88.7163C94.7978 88.6278 95.2853 88.5159 95.7645 88.3812C96.4796 88.1753 97.4133 87.8374 97.2852 87.281C97.1372 86.6472 93.5166 80.1568 93.1058 79.4197C93.089 79.3864 93.0645 79.3564 93.0339 79.3314C93.0033 79.3065 92.9671 79.2871 92.9276 79.2744C92.8881 79.2617 92.846 79.2561 92.8038 79.2577C92.7617 79.2594 92.7204 79.2683 92.6824 79.284C92.6443 79.2997 92.6104 79.3219 92.5825 79.3491C92.5547 79.3764 92.5335 79.4082 92.5203 79.4426C92.507 79.4771 92.502 79.5134 92.5055 79.5496C92.509 79.5858 92.5209 79.621 92.5405 79.6531C94.0842 82.4171 96.5705 86.9617 96.6704 87.3884C96.5922 87.5873 95.4061 87.9759 94.1817 88.1883C94.1411 88.1939 94.1022 88.2064 94.0672 88.225C94.0322 88.2435 94.0018 88.2679 93.9777 88.2966C93.9536 88.3253 93.9363 88.3578 93.9268 88.3922C93.9174 88.4266 93.9159 88.4623 93.9224 88.4973C93.929 88.5322 93.9435 88.5657 93.9651 88.5958C93.9867 88.6259 94.0149 88.6521 94.0483 88.6728C94.0817 88.6935 94.1194 88.7084 94.1595 88.7165C94.1995 88.7247 94.241 88.726 94.2816 88.7203L94.2807 88.7195Z" fill="#0C0C0C"/>
<path d="M53.6804 84.1243L64.598 82.2899C72.845 79.3232 75.1848 66.9595 75.1848 66.9595C75.1848 66.9595 85.3628 75.2977 109.688 70.2555C109.688 70.2555 104.404 41.0446 68.4857 49.9133C56.9044 52.7722 48.7007 62.9271 49.9208 76.3772C50.7758 85.8003 53.6804 84.1243 53.6804 84.1243Z" fill="#0A0A0A"/>
<path d="M67.2954 93.8176C63.5947 94.4583 59.7978 91.5719 59.0517 88.3877C58.3055 85.2034 60.8964 82.9293 64.5971 82.2882L67.0033 84.0915L70.4765 93.2661L67.2954 93.8176Z" fill="#E98862"/>
<path d="M95.7293 74.2437C96.6552 73.6805 97.738 73.3382 98.8676 73.2517C99.4351 73.2049 100.008 73.2322 100.566 73.3328C101.129 73.4314 101.675 73.5904 102.191 73.8061L102.207 73.8126C102.265 73.8343 102.33 73.8359 102.388 73.8171C102.447 73.7982 102.495 73.7604 102.521 73.7116C102.548 73.6629 102.551 73.6071 102.531 73.5563C102.51 73.5054 102.467 73.4634 102.411 73.4394C101.864 73.1907 101.282 73.0023 100.68 72.8785C100.073 72.7517 99.4481 72.704 98.8252 72.7371C97.5634 72.7971 96.3434 73.1469 95.2921 73.7502C95.2529 73.773 95.2194 73.8023 95.1933 73.8363C95.1673 73.8703 95.1493 73.9084 95.1404 73.9484C95.1315 73.9884 95.1319 74.0295 95.1415 74.0694C95.1511 74.1092 95.1698 74.1471 95.1965 74.1808C95.2231 74.2144 95.2572 74.2432 95.2968 74.2655C95.3364 74.2878 95.3807 74.3032 95.4273 74.3107C95.4738 74.3183 95.5216 74.3179 95.5679 74.3095C95.6142 74.3011 95.6582 74.285 95.6972 74.262L95.7057 74.2571L95.7293 74.2437Z" fill="#0C0C0C"/>
<path d="M85.7562 75.4294C84.5164 75.2172 83.2332 75.2952 82.0404 75.6551C81.4508 75.8298 80.895 76.0796 80.3916 76.3963C79.8902 76.7088 79.4366 77.0745 79.0415 77.4847C79.0017 77.5255 78.9817 77.578 78.9858 77.6312C78.9899 77.6843 79.0177 77.7341 79.0635 77.77C79.1093 77.8059 79.1695 77.8251 79.2315 77.8237C79.2934 77.8223 79.3523 77.8002 79.3958 77.7623L79.4085 77.7509C79.7897 77.3815 80.2234 77.0548 80.6992 76.7784C81.1702 76.5021 81.687 76.2885 82.2321 76.145C83.3141 75.8527 84.4668 75.8121 85.573 76.0275L85.6003 76.0336C85.6931 76.0529 85.7911 76.0398 85.8726 75.997C85.9541 75.9542 86.0126 75.8853 86.0351 75.8055C86.0576 75.7256 86.0422 75.6413 85.9925 75.5712C85.9428 75.5011 85.8627 75.4508 85.7699 75.4314L85.7562 75.4294Z" fill="#0C0C0C"/>
<path d="M64.6055 82.1351C71.9443 79.7848 74.3798 75.4254 75.1297 72.1812C75.6151 70.0175 75.5697 67.7905 74.9964 65.6429L74.7693 65.6968C75.334 67.8164 75.3777 70.0142 74.8975 72.1491C74.1569 75.3403 71.7564 79.63 64.5231 81.9458L64.6055 82.1351Z" fill="#0C0C0C"/>
<path d="M122.546 117.52L192.23 137.557L171.771 145.379L206.518 84.0611L234.915 95.4454L202.676 157.769C201.046 160.92 198.152 163.462 194.522 164.93C190.893 166.397 186.771 166.692 182.91 165.761L182.217 165.592L111.478 148.508L122.546 117.52Z" fill="#367CFF"/>
<path d="M78.7405 126.843C62.6808 126.192 62.0048 114.467 62.0048 114.467C62.0048 114.467 54.0475 114.909 48.7578 115.525C40.0976 116.532 34.3845 119.059 29.8377 122.969C25.6084 126.608 23.0336 130.544 25.7582 155.675C27.7311 173.872 26.3428 213.897 26.3428 213.897H124.208C124.208 213.897 131.042 156.072 131.852 147.882C133.398 132.245 137.766 128.793 128.916 120.738C122.497 114.896 105.927 114.467 99.258 114.467C99.1492 114.467 100.611 127.73 78.7405 126.843Z" fill="#367CFF"/>
<path d="M97.5362 90.9126C94.3805 92.2929 90.7802 92.7293 87.304 92.153C87.1837 92.1336 87.0594 92.144 86.9457 92.1831C86.832 92.2222 86.7336 92.2883 86.6619 92.3737C86.5902 92.4591 86.5483 92.5603 86.541 92.6654C86.5336 92.7706 86.5612 92.8753 86.6205 92.9675C87.6569 94.5381 90.1149 97.2223 94.332 96.1282C97.0547 95.4215 98.084 93.012 98.4656 91.5212C98.4917 91.4181 98.483 91.3108 98.4406 91.2117C98.3982 91.1127 98.3239 91.0262 98.2263 90.9622C98.1287 90.8983 98.0119 90.8597 97.8896 90.8509C97.7674 90.8421 97.6448 90.8635 97.5362 90.9126Z" fill="white"/>
<path d="M97.7336 78.8402C98.5758 78.8402 99.2585 78.2529 99.2585 77.5285C99.2585 76.804 98.5758 76.2168 97.7336 76.2168C96.8914 76.2168 96.2087 76.804 96.2087 77.5285C96.2087 78.2529 96.8914 78.8402 97.7336 78.8402Z" fill="#0C0C0C"/>
<path d="M83.0814 81.0466C83.9235 81.0466 84.6062 80.4594 84.6062 79.7349C84.6062 79.0105 83.9235 78.4232 83.0814 78.4232C82.2392 78.4232 81.5565 79.0105 81.5565 79.7349C81.5565 80.4594 82.2392 81.0466 83.0814 81.0466Z" fill="#0C0C0C"/>
<path d="M131.634 153.58C131.624 153.58 131.614 153.58 131.605 153.58C131.543 153.573 131.486 153.545 131.448 153.503C131.41 153.461 131.392 153.407 131.4 153.354L132.916 142.786C132.919 142.76 132.928 142.734 132.943 142.711C132.958 142.687 132.979 142.667 133.003 142.65C133.028 142.634 133.056 142.622 133.086 142.615C133.116 142.608 133.147 142.607 133.178 142.611C133.209 142.614 133.238 142.622 133.265 142.635C133.292 142.648 133.316 142.666 133.335 142.687C133.354 142.708 133.368 142.732 133.376 142.758C133.384 142.783 133.387 142.81 133.383 142.837L131.867 153.404C131.86 153.452 131.832 153.497 131.789 153.529C131.746 153.562 131.691 153.579 131.634 153.58Z" fill="#0C0C0C"/>
<path d="M379.354 72.0397C379.354 72.0397 373.516 66.4002 374.193 55.8389C374.717 47.6615 382.05 54.2747 382.05 54.2747C382.05 54.2747 382.494 48.3897 387.216 49.7909C391.938 51.1922 393.264 57.6814 393.264 57.6814" fill="#0C0C0C"/>
<path d="M412.162 54.7655C412.162 54.7655 435.741 61.119 420.523 87.7101L418.363 87.467L413.977 86.9746" fill="#0C0C0C"/>
<path d="M378.619 115.435C378.727 115.422 379.926 132.531 403.031 131.04C419.026 130.009 424.729 115.411 425.096 115.411C423.371 115.095 420.467 114.637 419.701 114.285C417.182 113.121 414.066 111.91 413.254 107.702C412.786 105.277 413.58 92.871 413.336 90.417L388.783 95.131C389.126 100.313 391.527 112.326 383.111 114.452C381.711 114.804 380.201 115.127 378.619 115.435Z" fill="#E98862"/>
<path d="M388.439 109.543C388.824 108.477 389.071 107.378 389.177 106.265C389.448 103.726 389.394 101.169 389.017 98.6406C394.007 98.0613 398.709 96.2896 402.587 93.5267C403.043 94.9749 405.55 101.304 404.856 102.68C403.544 105.282 397.377 109.543 388.439 109.543Z" fill="#0C0C0C"/>
<path d="M391.383 103.749C401.052 104.645 413.618 101.431 416.353 90.3672L418.82 80.3837C421.553 69.3211 417.016 59.1147 404.905 56.9002C392.795 54.6857 381.526 61.9999 378.792 73.0641L377.7 77.4839C377.355 79.007 377.132 80.5486 377.032 82.0978C376.731 86.1905 376.292 92.4168 378.487 97.0558C380.559 101.435 385.206 103.177 391.383 103.749Z" fill="#E98862"/>
<path d="M383.702 78.2599C384.545 78.2599 385.227 77.6726 385.227 76.9482C385.227 76.2237 384.545 75.6365 383.702 75.6365C382.86 75.6365 382.178 76.2237 382.178 76.9482C382.178 77.6726 382.86 78.2599 383.702 78.2599Z" fill="#0C0C0C"/>
<path d="M398.185 79.5716C399.027 79.5716 399.71 78.9843 399.71 78.2599C399.71 77.5355 399.027 76.9482 398.185 76.9482C397.343 76.9482 396.66 77.5355 396.66 78.2599C396.66 78.9843 397.343 79.5716 398.185 79.5716Z" fill="#0C0C0C"/>
<path d="M414.768 93.6004C418.448 94.2735 422.269 91.4321 423.051 88.2661C423.833 85.1001 421.281 82.8089 417.601 82.1359L415.18 83.9103L411.604 93.0218L414.768 93.6004Z" fill="#E98862"/>
<path d="M412.281 87.871C412.281 87.871 414.672 71.9615 409.364 70.0436C405.831 68.7663 395.851 71.7301 387.889 68.9531C384.406 67.7375 380.789 67.9198 380.099 69.3312C379.825 69.89 379.509 61.1315 386.652 55.7501C392.339 51.4653 407.444 52.5704 413.782 55.3818C431.329 63.1657 418.204 82.9576 418.204 82.9576L416.12 88.2255L412.281 87.871Z" fill="#0C0C0C"/>
<path d="M387.669 89.0092L387.645 89.006C386.459 88.7916 384.496 88.3171 384.681 87.5549C384.836 86.9223 388.515 80.4558 388.935 79.7207C388.971 79.6575 389.035 79.6091 389.112 79.5863C389.19 79.5635 389.275 79.5681 389.348 79.5991C389.422 79.6301 389.478 79.685 389.504 79.7517C389.531 79.8183 389.526 79.8913 389.49 79.9545C387.857 82.8178 385.391 87.2339 385.286 87.6639C385.359 87.8665 386.543 88.264 387.772 88.4857C387.849 88.5005 387.916 88.5403 387.96 88.5967C388.005 88.6532 388.022 88.722 388.009 88.7891C387.996 88.8562 387.953 88.9164 387.89 88.9574C387.827 88.9983 387.748 89.0169 387.669 89.0092Z" fill="#0C0C0C"/>
<path d="M387.396 72.8449C386.23 72.3388 384.927 72.1124 383.624 72.1896C382.984 72.2243 382.353 72.3414 381.753 72.5369C381.16 72.728 380.597 72.9829 380.078 73.2955C379.991 73.343 379.929 73.418 379.906 73.5043C379.883 73.5906 379.9 73.6812 379.954 73.7566C380.008 73.832 380.094 73.8862 380.194 73.9073C380.294 73.9285 380.4 73.915 380.488 73.8697L380.516 73.8563C380.992 73.6023 381.503 73.4008 382.038 73.2566C382.565 73.1117 383.114 73.0364 383.667 73.0333C384.76 73.0195 385.838 73.2545 386.792 73.7145L386.828 73.7327C386.895 73.7669 386.969 73.7895 387.046 73.799C387.123 73.8085 387.201 73.8048 387.276 73.7882C387.352 73.7716 387.422 73.7423 387.484 73.702C387.546 73.6618 387.599 73.6114 387.638 73.5537C387.677 73.4961 387.703 73.4323 387.713 73.366C387.724 73.2998 387.719 73.2324 387.699 73.1678C387.68 73.1031 387.645 73.0425 387.598 72.9894C387.551 72.9363 387.492 72.8917 387.424 72.8583L387.396 72.8449Z" fill="#0C0C0C"/>
<path d="M396.115 74.8722C397.174 74.6385 398.286 74.6495 399.339 74.9042C399.872 75.0298 400.38 75.2239 400.846 75.48C401.319 75.7378 401.753 76.0456 402.138 76.3963L402.159 76.4145C402.232 76.4751 402.329 76.5092 402.43 76.5097C402.531 76.5102 402.628 76.4771 402.702 76.4173C402.775 76.3575 402.819 76.2756 402.824 76.1887C402.829 76.1018 402.795 76.0166 402.729 75.9509C402.32 75.5342 401.852 75.1634 401.336 74.8475C400.815 74.5261 400.24 74.2737 399.632 74.0986C398.396 73.7356 397.069 73.6656 395.791 73.896C395.715 73.9102 395.644 73.9371 395.58 73.9751C395.517 74.0131 395.462 74.0615 395.421 74.1175C395.336 74.2306 395.307 74.368 395.341 74.4994C395.374 74.6308 395.467 74.7454 395.598 74.8181C395.73 74.8907 395.889 74.9154 396.042 74.8868L396.072 74.8803L396.115 74.8722Z" fill="#0C0C0C"/>
<path d="M385.803 91.4637C389.238 92.2019 392.86 91.9344 396.099 90.7035C396.211 90.6614 396.335 90.6477 396.456 90.6639C396.577 90.6801 396.69 90.7255 396.782 90.7949C396.874 90.8644 396.941 90.9549 396.976 91.0559C397.01 91.157 397.01 91.2644 396.977 91.3656C396.374 93.0963 394.678 96.1878 390.283 95.9317C387.445 95.7671 385.816 93.6166 385.054 92.2372C385.002 92.1416 384.982 92.035 384.997 91.93C385.013 91.825 385.063 91.726 385.142 91.6446C385.22 91.5633 385.324 91.5031 385.442 91.471C385.559 91.4389 385.684 91.4364 385.803 91.4637Z" fill="white"/>
<path d="M399.432 58.0169C401.073 54.703 400.282 51.239 397.664 50.2799C395.047 49.3208 391.595 51.2297 389.954 54.5436C388.313 57.8574 389.104 61.3214 391.721 62.2805C394.339 63.2396 397.791 61.3307 399.432 58.0169Z" fill="#0C0C0C"/>
<path d="M403.39 126.843C419.45 126.192 420.126 114.467 420.126 114.467C420.126 114.467 428.083 114.909 433.373 115.525C442.033 116.532 447.746 119.059 452.293 122.969C456.523 126.608 459.097 130.544 456.372 155.675C454.399 173.872 455.788 213.897 455.788 213.897H357.923C357.923 213.897 351.089 156.074 350.279 147.882C348.733 132.245 344.365 128.793 353.215 120.738C359.633 114.896 376.203 114.467 382.873 114.467C382.981 114.467 381.52 127.73 403.39 126.843Z" fill="#367CFF"/>
<path d="M350.048 124.359L324.745 170.503L274.847 138.224L255.028 160.895L321.101 203.636C321.692 204.014 322.31 204.361 322.95 204.674C324.838 205.584 326.916 206.165 329.065 206.384C331.214 206.603 333.392 206.456 335.475 205.951C337.558 205.446 339.505 204.593 341.204 203.441C342.904 202.289 344.323 200.86 345.381 199.236L345.667 198.797L384.27 139.525L350.048 124.359Z" fill="#367CFF"/>
<path d="M459.543 214.303H13.8707C13.7458 214.303 13.626 214.26 13.5376 214.184C13.4493 214.108 13.3997 214.005 13.3997 213.897C13.3997 213.79 13.4493 213.687 13.5376 213.611C13.626 213.535 13.7458 213.492 13.8707 213.492H459.543C459.668 213.492 459.788 213.535 459.876 213.611C459.964 213.687 460.014 213.79 460.014 213.897C460.014 214.005 459.964 214.108 459.876 214.184C459.788 214.26 459.668 214.303 459.543 214.303Z" fill="#292A2E"/>
<path d="M362.606 153.624H123.952V223.797H362.606V153.624Z" fill="white"/>
<path d="M362.841 224H123.717V153.421H362.841V224ZM124.188 223.595H362.37V153.827H124.188V223.595Z" fill="#0C0C0C"/>
<path d="M112.168 175.07L126.9 169.41C127.224 169.286 127.574 169.221 127.929 169.22C128.283 169.218 128.634 169.28 128.959 169.402C129.284 169.523 129.576 169.702 129.817 169.926C130.057 170.15 130.241 170.415 130.356 170.703C130.55 171.241 130.504 171.822 130.228 172.333C129.951 172.843 129.465 173.248 128.862 173.467L125.703 174.683L137.673 174.789C139.004 174.78 140.643 175.503 140.556 176.788C140.56 177.284 140.368 177.767 140.012 178.158C139.655 178.548 139.156 178.824 138.594 178.938C138.598 178.949 138.6 178.96 138.6 178.971C138.599 178.98 138.597 178.988 138.594 178.996L140.647 178.983C141.027 178.981 141.402 179.052 141.746 179.191C142.091 179.329 142.394 179.532 142.636 179.784C142.877 180.037 143.051 180.332 143.143 180.649C143.235 180.966 143.243 181.297 143.168 181.617C143.037 182.12 142.709 182.569 142.24 182.889C141.77 183.208 141.187 183.38 140.588 183.374L139.715 183.379C139.703 183.401 139.688 183.421 139.668 183.438C140.259 183.552 140.783 183.843 141.148 184.26C141.512 184.676 141.692 185.19 141.656 185.71C141.598 186.279 141.292 186.807 140.801 187.19C140.309 187.574 139.668 187.783 139.005 187.777L136.835 187.79C136.865 187.809 136.89 187.833 136.908 187.861C136.926 187.889 136.936 187.921 136.937 187.953C136.935 187.991 136.92 188.028 136.894 188.059C137.388 188.287 137.781 188.647 138.013 189.086C138.245 189.524 138.303 190.016 138.179 190.486C138.036 190.976 137.705 191.411 137.24 191.72C136.774 192.029 136.201 192.194 135.612 192.188L117.307 192.3C114.746 192.316 112.238 191.673 110.105 190.455C107.971 189.237 106.309 187.498 105.332 185.462C104.489 183.706 104.475 181.737 105.293 179.973C106.111 178.209 107.696 176.788 109.712 176.013L112.168 175.07Z" fill="#E98862"/>
<g opacity="0.2">
<path d="M126.745 178.882C126.746 178.935 126.771 178.986 126.815 179.023C126.859 179.061 126.919 179.082 126.981 179.082L138.364 179.17C138.427 179.17 138.487 179.149 138.532 179.112C138.576 179.074 138.602 179.023 138.602 178.969C138.603 178.915 138.578 178.864 138.535 178.825C138.491 178.787 138.431 178.765 138.369 178.765L126.985 178.676C126.922 178.676 126.862 178.698 126.818 178.736C126.774 178.774 126.749 178.825 126.749 178.879L126.745 178.882Z" fill="#0C0C0C"/>
</g>
<g opacity="0.2">
<path d="M126.561 183.201C126.562 183.255 126.587 183.305 126.631 183.343C126.676 183.38 126.735 183.401 126.797 183.401L139.501 183.5C139.564 183.5 139.624 183.478 139.668 183.44C139.712 183.402 139.737 183.351 139.737 183.297C139.735 183.244 139.709 183.193 139.665 183.156C139.622 183.118 139.563 183.096 139.501 183.094L126.797 182.996C126.766 182.996 126.735 183.001 126.706 183.011C126.677 183.021 126.651 183.036 126.629 183.055C126.607 183.073 126.589 183.096 126.577 183.12C126.565 183.145 126.559 183.172 126.559 183.199L126.561 183.201Z" fill="#0C0C0C"/>
</g>
<g opacity="0.2">
<path d="M126.331 187.875C126.332 187.928 126.357 187.979 126.401 188.017C126.445 188.054 126.505 188.075 126.566 188.075L136.701 188.154C136.763 188.154 136.823 188.133 136.868 188.096C136.912 188.058 136.938 188.007 136.938 187.953C136.939 187.899 136.915 187.847 136.871 187.809C136.827 187.771 136.767 187.749 136.705 187.748L126.571 187.67C126.508 187.67 126.448 187.691 126.404 187.729C126.36 187.767 126.335 187.819 126.335 187.872L126.331 187.875Z" fill="#0C0C0C"/>
</g>
<path d="M116.385 197.634L34.7071 213.606C31.9938 213.86 29.2489 213.57 26.6878 212.758C24.1268 211.946 21.8193 210.635 19.9463 208.927C18.0733 207.219 16.6859 205.161 15.8928 202.915C15.0997 200.668 14.9226 198.294 15.3753 195.979L24.7223 131.305C25.4997 127.331 28.0805 123.785 31.8972 121.447C35.7138 119.11 40.4536 118.172 45.0738 118.841C49.694 119.51 53.8161 121.73 56.5334 125.013C59.2507 128.296 60.3406 132.373 59.5632 136.348L55.0621 182.638L111.809 171.591L116.385 197.634Z" fill="#367CFF"/>
<path d="M43.5788 184.458C43.5197 184.457 43.4629 184.438 43.4197 184.403C43.3765 184.368 43.3502 184.321 43.3458 184.27C43.3415 184.219 43.3595 184.169 43.3963 184.129C43.4331 184.089 43.486 184.063 43.5444 184.055L54.926 181.964C54.9566 181.96 54.9879 181.961 55.018 181.967C55.0482 181.973 55.0766 181.985 55.1015 182.001C55.1264 182.017 55.1474 182.037 55.1632 182.06C55.1791 182.083 55.1894 182.108 55.1935 182.134C55.2027 182.187 55.187 182.242 55.1499 182.285C55.1129 182.328 55.0574 182.357 54.9957 182.365L43.6141 184.455C43.6025 184.457 43.5906 184.458 43.5788 184.458Z" fill="#0C0C0C"/>
<path d="M37.1576 213.897C37.0951 213.901 37.0336 213.883 36.9866 213.847C36.9395 213.812 36.9108 213.762 36.9067 213.708C36.9027 213.654 36.9236 213.601 36.9649 213.561C37.0062 213.52 37.0645 213.496 37.127 213.492L115.872 197.538L111.41 171.887L55.0018 182.363C54.9653 182.366 54.9282 182.363 54.8935 182.353C54.8588 182.342 54.8273 182.325 54.8016 182.303C54.7759 182.28 54.7568 182.252 54.7458 182.222C54.7348 182.191 54.7323 182.159 54.7384 182.128L57.9026 155.679C57.9073 155.653 57.9182 155.627 57.9345 155.605C57.9508 155.582 57.9722 155.562 57.9975 155.547C58.0228 155.531 58.0514 155.52 58.0817 155.514C58.1121 155.509 58.1434 155.508 58.174 155.513C58.2355 155.522 58.2905 155.551 58.3267 155.595C58.3629 155.639 58.3775 155.693 58.3671 155.746L55.258 181.924L111.52 171.441C111.55 171.433 111.582 171.431 111.613 171.435C111.644 171.438 111.674 171.447 111.701 171.461C111.728 171.475 111.752 171.493 111.771 171.514C111.79 171.536 111.803 171.561 111.811 171.587L116.387 197.632C116.401 197.683 116.392 197.737 116.361 197.782C116.33 197.828 116.279 197.861 116.22 197.875L37.1882 213.896C37.1781 213.897 37.1678 213.897 37.1576 213.897Z" fill="#0C0C0C"/>
<path d="M369.962 187.227L355.231 181.567C354.907 181.443 354.557 181.378 354.202 181.376C353.848 181.375 353.497 181.437 353.172 181.558C352.846 181.68 352.554 181.859 352.314 182.083C352.073 182.307 351.89 182.571 351.775 182.86C351.581 183.398 351.627 183.979 351.903 184.489C352.179 185 352.666 185.404 353.269 185.624L356.428 186.839L344.458 186.946C343.127 186.937 341.487 187.66 341.575 188.945C341.571 189.441 341.763 189.924 342.119 190.315C342.476 190.705 342.975 190.98 343.537 191.095C343.533 191.106 343.531 191.117 343.531 191.128C343.532 191.136 343.534 191.144 343.537 191.153L341.484 191.14C341.104 191.138 340.728 191.209 340.384 191.347C340.04 191.486 339.736 191.689 339.495 191.941C339.253 192.193 339.08 192.489 338.988 192.806C338.896 193.123 338.887 193.454 338.963 193.774C339.094 194.277 339.421 194.725 339.891 195.045C340.36 195.365 340.943 195.536 341.542 195.531L342.416 195.536C342.428 195.558 342.444 195.578 342.463 195.595C341.872 195.709 341.348 196 340.983 196.416C340.619 196.833 340.439 197.347 340.475 197.867C340.533 198.436 340.839 198.964 341.33 199.347C341.822 199.73 342.464 199.94 343.127 199.934L345.297 199.947C345.266 199.965 345.241 199.99 345.223 200.018C345.205 200.046 345.196 200.077 345.195 200.109C345.196 200.148 345.211 200.185 345.237 200.216C344.743 200.443 344.35 200.804 344.118 201.242C343.886 201.681 343.828 202.173 343.952 202.642C344.095 203.133 344.426 203.568 344.892 203.877C345.357 204.186 345.931 204.351 346.519 204.344L364.825 204.456C367.386 204.472 369.894 203.83 372.027 202.611C374.161 201.393 375.823 199.654 376.8 197.618C377.643 195.862 377.657 193.893 376.839 192.128C376.021 190.364 374.435 188.944 372.419 188.169L369.962 187.227Z" fill="#E98862"/>
<g opacity="0.2">
<path d="M355.386 191.039C355.385 191.092 355.359 191.143 355.315 191.18C355.271 191.218 355.212 191.239 355.15 191.239L343.766 191.326C343.735 191.327 343.704 191.322 343.676 191.312C343.647 191.302 343.621 191.287 343.599 191.268C343.577 191.25 343.559 191.228 343.547 191.203C343.535 191.179 343.529 191.152 343.528 191.126C343.528 191.099 343.534 191.073 343.546 191.048C343.557 191.023 343.574 191.001 343.596 190.982C343.618 190.963 343.643 190.948 343.672 190.937C343.7 190.927 343.731 190.921 343.762 190.921L355.146 190.833C355.208 190.833 355.268 190.854 355.312 190.892C355.356 190.93 355.381 190.982 355.381 191.035L355.386 191.039Z" fill="#0C0C0C"/>
</g>
<g opacity="0.2">
<path d="M355.569 195.358C355.568 195.411 355.544 195.461 355.5 195.499C355.456 195.536 355.398 195.557 355.336 195.558L342.631 195.656C342.569 195.656 342.509 195.635 342.465 195.597C342.421 195.559 342.396 195.507 342.396 195.454C342.398 195.4 342.423 195.35 342.467 195.312C342.511 195.275 342.569 195.253 342.631 195.251L355.336 195.153C355.398 195.153 355.458 195.174 355.502 195.212C355.546 195.25 355.571 195.301 355.571 195.355L355.569 195.358Z" fill="#0C0C0C"/>
</g>
<g opacity="0.2">
<path d="M355.8 200.032C355.799 200.085 355.774 200.136 355.73 200.173C355.686 200.211 355.626 200.232 355.564 200.232L345.43 200.31C345.399 200.31 345.369 200.305 345.34 200.296C345.311 200.286 345.285 200.271 345.263 200.252C345.241 200.234 345.223 200.211 345.211 200.187C345.199 200.162 345.193 200.136 345.193 200.109C345.192 200.083 345.198 200.056 345.21 200.032C345.221 200.007 345.238 199.985 345.26 199.966C345.282 199.947 345.308 199.932 345.336 199.921C345.365 199.911 345.395 199.905 345.426 199.905L355.56 199.826C355.623 199.826 355.683 199.848 355.727 199.886C355.771 199.924 355.796 199.975 355.796 200.029L355.8 200.032Z" fill="#0C0C0C"/>
</g>
<path d="M370.456 209.791L447.423 213.606C450.137 213.86 452.882 213.57 455.443 212.758C458.004 211.946 460.311 210.635 462.184 208.927C464.057 207.219 465.445 205.161 466.238 202.915C467.031 200.668 467.208 198.294 466.755 195.979L457.41 131.303C457.025 129.335 456.193 127.452 454.962 125.76C453.731 124.069 452.125 122.603 450.235 121.445C448.345 120.288 446.209 119.462 443.948 119.015C441.687 118.568 439.346 118.508 437.059 118.839C434.771 119.17 432.581 119.886 430.615 120.945C428.649 122.004 426.944 123.385 425.599 125.011C424.253 126.637 423.293 128.474 422.774 130.419C422.254 132.364 422.184 134.378 422.569 136.346L427.07 185.473L370.794 183.746L370.456 209.791Z" fill="#367CFF"/>
<path d="M438.552 185.268C438.611 185.268 438.668 185.248 438.711 185.213C438.754 185.179 438.781 185.131 438.785 185.08C438.789 185.03 438.771 184.979 438.735 184.939C438.698 184.9 438.645 184.873 438.586 184.865L427.205 184.801C427.174 184.796 427.143 184.797 427.113 184.804C427.083 184.81 427.054 184.821 427.029 184.837C427.004 184.853 426.983 184.873 426.967 184.896C426.952 184.919 426.941 184.944 426.937 184.971C426.928 185.024 426.943 185.078 426.981 185.121C427.018 185.164 427.073 185.193 427.135 185.201L438.517 185.266C438.528 185.267 438.54 185.268 438.552 185.268Z" fill="#0C0C0C"/>
<path d="M444.974 213.897C445.036 213.901 445.098 213.883 445.145 213.847C445.192 213.812 445.22 213.761 445.224 213.708C445.228 213.654 445.207 213.601 445.166 213.561C445.125 213.52 445.066 213.496 445.004 213.492L370.968 209.696L371.19 184.046L427.128 185.201C427.164 185.205 427.201 185.201 427.236 185.191C427.271 185.18 427.302 185.163 427.328 185.141C427.354 185.118 427.373 185.09 427.384 185.06C427.395 185.03 427.397 184.997 427.391 184.966L424.227 155.681C424.223 155.654 424.212 155.629 424.195 155.606C424.179 155.584 424.158 155.564 424.132 155.548C424.107 155.533 424.078 155.522 424.048 155.516C424.018 155.51 423.987 155.51 423.956 155.514C423.925 155.519 423.896 155.528 423.87 155.542C423.844 155.557 423.821 155.575 423.803 155.597C423.785 155.618 423.772 155.643 423.765 155.669C423.758 155.695 423.757 155.722 423.762 155.748L426.874 184.762L371.083 183.599C371.053 183.592 371.021 183.59 370.99 183.593C370.959 183.597 370.929 183.606 370.902 183.619C370.875 183.633 370.851 183.651 370.832 183.673C370.813 183.694 370.8 183.719 370.792 183.745L370.456 209.79C370.441 209.841 370.45 209.895 370.481 209.941C370.512 209.986 370.563 210.019 370.622 210.033L444.941 213.893C444.952 213.895 444.963 213.897 444.974 213.897Z" fill="#0C0C0C"/>
<path d="M180.532 199.538H174.277L170.768 187.83C170.638 187.413 170.416 186.552 170.103 185.246C169.791 183.94 169.61 183.064 169.563 182.616C169.492 183.165 169.315 184.047 169.031 185.261C168.747 186.476 168.528 187.342 168.375 187.861L164.884 199.538H158.646L152.035 177.251H157.44L160.754 189.417C161.334 191.663 161.753 193.609 162.013 195.256C162.083 194.676 162.246 193.779 162.5 192.565C162.755 191.351 162.994 190.408 163.218 189.737L166.993 177.251H172.185L175.96 189.737C176.125 190.296 176.332 191.15 176.581 192.298C176.829 193.446 177.017 194.432 177.146 195.256C177.264 194.463 177.452 193.475 177.711 192.29C177.97 191.106 178.205 190.148 178.418 189.417L181.715 177.251H187.121L180.532 199.538Z" fill="#0CBC8B"/>
<path d="M205.308 199.538H190.386V177.251H205.308V181.123H195.88V186.017H204.653V189.888H195.88V195.635H205.308V199.538Z" fill="#0CBC8B"/>
<path d="M210.713 199.538V177.251H216.207V195.637H226.717V199.54L210.713 199.538Z" fill="#0CBC8B"/>
<path d="M242.225 180.863C241.293 180.826 240.366 180.991 239.526 181.341C238.687 181.691 237.963 182.216 237.42 182.867C236.285 184.204 235.718 186.067 235.719 188.455C235.719 193.426 237.887 195.911 242.222 195.911C244.486 195.836 246.72 195.438 248.833 194.736V198.699C246.571 199.484 244.148 199.873 241.709 199.843C237.94 199.843 235.057 198.86 233.06 196.893C231.063 194.926 230.064 192.103 230.065 188.424C230.011 186.324 230.514 184.241 231.536 182.334C232.442 180.661 233.916 179.263 235.763 178.324C237.73 177.365 239.962 176.883 242.222 176.929C244.856 176.953 247.449 177.49 249.807 178.5L248.034 182.341C247.082 181.951 246.106 181.605 245.11 181.304C244.184 181.018 243.209 180.869 242.225 180.863Z" fill="#0CBC8B"/>
<path d="M277.864 188.363C277.864 192.053 276.8 194.888 274.674 196.87C272.547 198.852 269.498 199.843 265.529 199.843C261.559 199.843 258.511 198.852 256.384 196.87C254.257 194.889 253.194 192.043 253.194 188.333C253.194 184.623 254.26 181.79 256.393 179.834C258.526 177.878 261.583 176.899 265.564 176.899C269.545 176.899 272.591 177.885 274.7 179.857C276.81 181.829 277.864 184.665 277.864 188.363ZM258.954 188.363C258.954 190.853 259.503 192.729 260.603 193.989C261.702 195.249 263.344 195.879 265.529 195.879C269.913 195.879 272.105 193.374 272.104 188.363C272.104 183.343 269.924 180.832 265.564 180.832C263.379 180.832 261.73 181.465 260.618 182.73C259.506 183.996 258.951 185.874 258.954 188.363Z" fill="#0CBC8B"/>
<path d="M294.204 199.538L287.966 182.052H287.806C288.03 185.609 288.143 187.983 288.143 189.171V199.538H283.233V177.251H290.713L296.845 194.295H296.95L303.455 177.251H310.934V199.538H305.812V188.988C305.812 188.491 305.821 187.917 305.838 187.266C305.855 186.615 305.935 184.887 306.077 182.083H305.918L299.237 199.538H294.204Z" fill="#0CBC8B"/>
<path d="M332.378 199.538H317.455V177.251H332.377V181.123H322.95V186.017H331.723V189.888H322.95V195.635H332.378V199.538Z" fill="#0CBC8B"/>
</g>
<defs>
<clipPath id="clip0_106_23">
<rect width="467" height="224" fill="white"/>
</clipPath>
</defs>
</svg>
